<?xml version="1.0" standalone="no"?>
<!DOCTYPE svg PUBLIC "-//W3C//DTD SVG 20010904//EN"
 "http://www.w3.org/TR/2001/REC-SVG-20010904/DTD/svg10.dtd">
<svg version="1.0" xmlns="http://www.w3.org/2000/svg"
 width="963.000000pt" height="748.000000pt" viewBox="0 0 963.000000 748.000000"
 preserveAspectRatio="xMidYMid meet">

<g transform="translate(0.000000,748.000000) scale(0.100000,-0.100000)"
fill="#000000" stroke="none">
<path d="M4996 7411 c-3 -5 4 -11 15 -14 20 -5 20 -11 17 -152 -3 -133 -5
-148 -23 -162 -18 -13 -9 -14 100 -11 105 3 125 6 158 27 42 26 71 75 81 136
6 32 1 50 -21 95 -24 47 -35 58 -73 72 -49 18 -244 25 -254 9z m232 -48 c36
-27 54 -65 56 -122 1 -57 -18 -105 -52 -127 -23 -15 -124 -26 -135 -14 -2 3
-7 70 -11 149 l-6 143 60 -4 c39 -3 70 -11 88 -25z"/>
<path d="M4436 7363 c-3 -21 -13 -92 -22 -158 -10 -73 -22 -127 -32 -137 -14
-17 -12 -18 39 -17 48 0 51 2 30 12 -21 10 -23 15 -17 61 14 110 19 136 25
136 4 0 13 -17 21 -37 19 -53 81 -164 88 -159 4 2 27 49 52 105 25 55 48 101
52 101 3 0 12 -47 19 -105 l13 -105 50 1 c44 0 48 2 28 11 -25 13 -25 13 -47
163 -21 146 -25 165 -35 165 -5 0 -12 -9 -15 -21 -4 -11 -30 -68 -58 -127
l-50 -107 -61 127 c-34 70 -64 127 -68 128 -3 0 -9 -17 -12 -37z"/>
<path d="M5419 7226 c22 -38 31 -66 31 -100 0 -37 3 -46 18 -46 14 0 17 7 14
45 -3 35 2 55 28 100 28 49 30 55 13 55 -12 0 -26 -13 -36 -36 -19 -39 -29
-38 -47 6 -8 19 -20 30 -32 30 -18 0 -17 -4 11 -54z"/>
<path d="M4827 7263 c-7 -7 -10 -187 -3 -194 2 -2 27 -2 54 -1 33 3 53 9 56
19 5 12 -1 14 -34 8 l-40 -7 0 35 c0 31 3 36 27 39 14 2 28 9 31 17 3 10 -3
11 -27 6 -30 -6 -31 -6 -31 29 0 34 2 36 31 34 19 -2 34 2 36 10 3 8 -9 12
-44 12 -28 0 -53 -3 -56 -7z"/>
<path d="M4065 7238 c-3 -8 -5 -55 -3 -104 2 -71 6 -89 18 -89 12 0 14 10 12
43 -2 23 -1 42 2 42 3 0 22 -18 42 -40 20 -22 46 -40 57 -40 18 0 16 5 -18 40
-37 37 -38 40 -22 58 21 23 22 65 3 81 -24 20 -85 26 -91 9z m63 -20 c17 -17
15 -42 -6 -61 -23 -21 -32 -13 -32 28 0 44 14 57 38 33z"/>
<path d="M4230 7150 l0 -100 50 0 c40 0 51 4 61 21 10 19 9 20 -13 14 -61 -17
-58 -18 -58 19 0 30 3 35 27 38 14 2 28 9 31 16 3 10 -4 13 -24 10 -26 -3 -29
0 -32 30 -3 33 -3 34 27 27 24 -5 31 -3 31 9 0 12 -11 16 -50 16 l-50 0 0
-100z"/>
<path d="M5479 6941 c-27 -22 -39 -27 -47 -19 -17 17 -50 -17 -64 -65 -10 -32
-29 -53 -99 -108 -47 -38 -94 -80 -103 -94 -9 -14 -26 -25 -39 -25 -12 0 -40
-10 -62 -21 -21 -12 -62 -25 -90 -30 -27 -4 -62 -11 -77 -15 -32 -7 -35 6 -19
63 14 47 -4 98 -43 128 -48 37 -89 32 -143 -18 -27 -24 -30 -71 -8 -124 9 -20
14 -42 11 -49 -8 -20 -144 -5 -198 22 -26 13 -57 24 -68 24 -11 0 -27 8 -34
18 -8 9 -44 53 -81 97 -37 44 -72 91 -78 105 -18 41 -59 81 -72 70 -7 -6 -24
1 -49 21 -20 17 -39 29 -42 26 -3 -3 0 -25 6 -48 8 -30 28 -60 61 -93 27 -27
66 -81 87 -120 74 -136 85 -149 173 -201 46 -28 96 -53 110 -57 15 -5 31 -14
37 -20 12 -16 66 -167 61 -172 -2 -2 -132 -9 -289 -14 l-285 -10 365 6 c201 3
373 5 384 4 17 -1 18 7 14 103 -2 64 -8 109 -16 117 -9 9 -12 -5 -13 -67 -1
-44 -4 -93 -8 -110 -6 -28 -9 -30 -51 -30 -44 0 -44 0 -63 50 -11 28 -22 70
-26 95 -7 49 -15 55 -113 86 -95 29 -155 81 -215 187 -28 51 -74 118 -102 149
-28 31 -51 59 -51 62 0 3 12 0 26 -6 14 -7 41 -35 60 -63 18 -27 60 -86 94
-129 33 -43 60 -83 60 -87 0 -5 20 -9 44 -9 44 0 66 -12 46 -25 -23 -14 -8
-25 28 -20 20 4 86 2 147 -4 60 -5 112 -8 114 -6 2 3 -6 27 -18 54 -35 81 -24
155 25 167 19 5 31 1 47 -15 19 -19 22 -33 22 -113 0 -113 10 -125 74 -83 35
24 56 29 122 33 62 4 77 7 69 17 -12 14 7 25 41 25 11 0 46 26 78 59 65 63
141 127 141 116 0 -9 -58 -95 -84 -123 -12 -13 -37 -32 -57 -42 -20 -11 -60
-40 -90 -66 -30 -25 -82 -60 -117 -77 -35 -16 -65 -35 -67 -41 -9 -29 -14
-166 -6 -166 5 0 14 21 21 48 19 71 46 109 86 122 19 6 65 39 102 73 37 34 83
72 103 85 20 12 56 49 80 83 24 34 70 92 102 128 49 55 107 145 107 166 0 14
-29 2 -61 -24z m-49 -76 c0 -8 -12 -27 -27 -43 -16 -15 -25 -23 -20 -18 4 6 7
16 7 22 0 7 4 25 10 39 10 26 30 26 30 0z"/>
<path d="M5008 6538 c-56 -12 -63 -28 -12 -28 38 0 74 15 74 30 0 11 2 11 -62
-2z"/>
<path d="M4900 6256 c0 -8 -6 -17 -12 -19 -7 -3 0 -6 15 -6 25 -1 27 1 17 19
-13 23 -20 26 -20 6z"/>
<path d="M5098 6233 c89 -2 235 -2 325 0 89 1 16 3 -163 3 -179 0 -252 -2
-162 -3z"/>
<path d="M4960 6169 c-31 -13 -40 -26 -40 -66 0 -43 36 -68 85 -59 29 6 35 11
35 31 0 31 -17 33 -22 3 -8 -55 -83 -17 -76 38 4 34 42 58 70 43 11 -6 18 -6
18 0 0 8 -24 22 -38 20 -4 0 -18 -5 -32 -10z"/>
<path d="M5080 6115 c0 -37 4 -65 10 -65 6 0 10 11 10 25 0 14 4 25 8 25 5 0
14 -11 20 -25 6 -14 19 -25 27 -25 14 0 13 4 -4 29 -18 25 -19 30 -6 41 8 7
15 18 15 25 0 16 -28 40 -37 31 -4 -4 -1 -11 6 -16 17 -10 7 -40 -14 -40 -10
0 -15 10 -15 30 0 17 -4 30 -10 30 -6 0 -10 -28 -10 -65z"/>
<path d="M5209 6162 c-27 -23 -30 -75 -6 -99 22 -22 74 -21 97 3 30 31 33 58
9 87 -25 32 -66 36 -100 9z m79 -4 c7 -7 12 -26 12 -43 0 -36 -15 -55 -45 -55
-30 0 -45 19 -45 55 0 36 15 55 45 55 12 0 26 -5 33 -12z"/>
<path d="M5357 6173 c-11 -10 -8 -82 3 -104 7 -13 21 -19 45 -19 42 0 55 20
55 84 0 66 -18 57 -22 -11 -3 -51 -6 -58 -25 -61 -27 -4 -43 23 -41 72 1 37
-4 51 -15 39z"/>
<path d="M5494 6167 c-9 -23 0 -112 11 -109 6 2 9 12 8 23 -2 14 6 23 28 31
25 8 30 15 27 37 -2 21 -9 27 -36 29 -21 2 -34 -2 -38 -11z m51 -22 c0 -10 -6
-20 -12 -22 -8 -3 -13 5 -13 22 0 17 5 25 13 23 6 -3 12 -13 12 -23z"/>
<path d="M4554 6162 c-15 -10 -34 -47 -34 -67 0 -9 11 -27 26 -41 20 -21 31
-24 52 -19 15 4 35 7 44 7 9 0 20 8 23 19 9 26 55 26 62 -1 3 -11 12 -20 20
-20 8 0 13 4 11 8 -1 4 -14 33 -27 65 -14 31 -27 57 -30 57 -3 0 -17 -25 -30
-55 -20 -47 -28 -55 -57 -61 -43 -8 -64 8 -64 51 0 42 20 59 61 50 22 -5 29
-4 25 4 -8 12 -65 15 -82 3z m156 -58 c0 -8 -7 -14 -15 -14 -15 0 -21 21 -9
33 10 9 24 -2 24 -19z"/>
<path d="M4780 6105 l0 -65 38 1 c32 1 33 2 12 8 -22 6 -25 13 -28 64 -4 79
-22 72 -22 -8z"/>
<path d="M4230 6095 l0 -65 33 1 c23 1 26 3 10 6 -28 5 -32 47 -5 62 16 10 16
10 0 11 -27 0 -23 38 5 43 16 3 13 5 -10 6 l-33 1 0 -65z"/>
<path d="M4322 6098 c3 -63 3 -63 35 -66 24 -2 39 3 58 22 50 50 22 106 -54
106 l-42 0 3 -62z m85 23 c14 -28 4 -55 -27 -71 -31 -16 -40 -4 -40 51 0 49 1
50 27 47 17 -2 32 -12 40 -27z"/>
<path d="M4470 6100 c0 -33 4 -60 10 -60 6 0 10 27 10 60 0 33 -4 60 -10 60
-6 0 -10 -27 -10 -60z"/>
<path d="M4065 6138 c-11 -36 -16 -112 -7 -103 6 6 12 24 14 40 l4 30 19 -37
c10 -21 22 -38 25 -38 3 0 15 17 25 38 l18 37 10 -37 c5 -21 14 -38 19 -38 7
0 8 14 4 38 -3 20 -6 47 -6 60 0 26 -16 29 -24 5 -4 -10 -15 -29 -25 -42 l-19
-25 -21 42 c-23 44 -29 50 -36 30z"/>
<path d="M4913 5990 c-188 -3 -344 -8 -348 -12 -4 -4 69 -5 161 -3 93 3 324 7
513 10 189 2 346 7 350 10 3 3 -71 5 -164 3 -94 -2 -324 -5 -512 -8z"/>
<path d="M4222 5973 c59 -2 158 -2 220 0 62 1 14 3 -107 3 -121 0 -172 -2
-113 -3z"/>
<path d="M5030 5848 c-223 -3 -1385 -9 -2582 -13 -1264 -4 -2178 -11 -2178
-16 0 -17 3510 -16 4395 2 326 6 1280 8 2646 3 1615 -5 2138 -4 2143 5 4 6 1
13 -6 15 -23 8 -3993 11 -4418 4z"/>
<path d="M4813 5655 c0 -36 4 -65 9 -65 4 0 8 29 8 65 0 36 -4 65 -8 65 -5 0
-8 -29 -9 -65z"/>
<path d="M4974 5697 c-31 -27 -35 -70 -9 -95 16 -16 17 -16 5 6 -15 30 -5 72
23 94 12 10 19 18 15 18 -4 0 -19 -10 -34 -23z"/>
<path d="M5064 5712 c-6 -4 -13 -15 -17 -24 -5 -13 0 -19 19 -24 22 -6 25 -11
22 -36 -4 -25 -3 -27 10 -15 18 19 8 54 -19 62 -22 7 -26 25 -5 25 8 0 18 5
21 10 7 12 -15 13 -31 2z"/>
<path d="M5315 5700 c5 -15 2 -26 -6 -31 -11 -7 -11 -9 3 -9 20 0 28 -20 16
-42 -6 -14 -5 -16 7 -12 15 6 21 45 8 58 -4 4 -8 17 -8 28 0 12 -6 23 -14 26
-10 3 -11 -2 -6 -18z"/>
<path d="M5387 5702 c-24 -27 -21 -102 5 -102 5 0 6 5 3 11 -11 17 -8 79 5 94
18 21 6 18 -13 -3z"/>
<path d="M5481 5694 c-24 -30 -27 -66 -8 -82 10 -8 12 -2 9 28 -3 29 1 43 17
59 12 12 17 21 12 21 -5 0 -19 -12 -30 -26z"/>
<path d="M5620 5705 c-14 -17 -10 -47 8 -53 11 -3 11 -1 1 17 -11 17 -11 23
-1 33 11 11 16 9 28 -6 15 -22 10 -51 -14 -78 -9 -11 -10 -18 -4 -18 17 0 42
42 42 70 0 44 -35 65 -60 35z"/>
<path d="M5722 5684 c-32 -49 -24 -51 10 -3 15 21 24 39 20 39 -4 0 -17 -16
-30 -36z"/>
<path d="M5833 5709 c23 -14 22 -64 -3 -89 -11 -11 -16 -20 -12 -20 13 0 39
32 46 57 9 28 -9 63 -32 63 -16 -1 -16 -1 1 -11z"/>
<path d="M6245 5660 c0 -33 4 -60 10 -60 6 0 10 27 10 60 0 33 -4 60 -10 60
-6 0 -10 -27 -10 -60z"/>
<path d="M6295 5710 c3 -5 8 -10 11 -10 2 0 4 5 4 10 0 6 -5 10 -11 10 -5 0
-7 -4 -4 -10z"/>
<path d="M6593 5700 c-31 -28 -37 -57 -19 -85 18 -27 36 -31 54 -13 16 16 15
43 -3 58 -17 14 -21 0 -5 -16 13 -13 2 -44 -15 -44 -32 0 -33 63 0 95 29 30
18 34 -12 5z"/>
<path d="M6689 5713 c-10 -2 -19 -13 -22 -24 -4 -15 1 -23 19 -29 23 -9 32
-36 17 -56 -5 -5 0 -1 10 9 23 25 22 32 -8 55 -28 23 -32 32 -11 32 8 0 18 5
21 10 6 10 2 11 -26 3z"/>
<path d="M852 5690 c0 -14 2 -19 5 -12 2 6 2 18 0 25 -3 6 -5 1 -5 -13z"/>
<path d="M4675 5650 c0 -33 4 -60 10 -60 6 0 10 27 10 60 0 33 -4 60 -10 60
-6 0 -10 -27 -10 -60z"/>
<path d="M5141 5687 c-9 -23 -4 -74 8 -81 3 -2 6 20 6 50 0 30 -1 54 -3 54 -1
0 -6 -10 -11 -23z"/>
<path d="M5185 5654 c0 -46 2 -52 13 -37 6 9 12 29 12 44 0 14 -6 31 -12 37
-10 8 -13 -2 -13 -44z"/>
<path d="M5427 5677 c3 -19 0 -44 -6 -56 -7 -11 -8 -21 -2 -21 20 0 31 93 12
105 -6 3 -8 -8 -4 -28z"/>
<path d="M5794 5696 c-4 -11 0 -24 10 -34 16 -16 17 -15 10 13 -9 38 -12 42
-20 21z"/>
<path d="M5897 5703 c-16 -16 -4 -103 14 -103 5 0 4 12 -2 27 -5 14 -7 39 -4
55 7 28 4 34 -8 21z"/>
<path d="M5944 5682 c3 -17 1 -44 -5 -58 -8 -24 -8 -25 6 -14 17 14 20 68 4
90 -8 11 -9 7 -5 -18z"/>
<path d="M6762 5698 c-14 -14 -16 -67 -3 -87 6 -9 10 5 12 43 2 31 4 56 4 56
-1 0 -6 -5 -13 -12z"/>
<path d="M6923 5704 c21 -7 21 -13 0 -36 -15 -17 -15 -18 1 -18 20 0 32 -25
20 -43 -5 -7 -1 -4 8 6 14 14 15 23 7 38 -5 11 -9 27 -7 37 2 12 -4 18 -22 19
-14 1 -18 0 -7 -3z"/>
<path d="M7000 5695 c-15 -18 -16 -73 -1 -88 6 -6 8 5 4 32 -4 26 -1 46 7 56
7 8 10 15 7 15 -2 0 -10 -7 -17 -15z"/>
<path d="M7091 5684 c-12 -15 -21 -33 -21 -41 0 -26 20 -53 39 -53 38 0 56 57
21 68 -12 4 -13 3 -2 -10 16 -20 5 -50 -17 -46 -22 4 -26 54 -6 84 21 32 12
31 -14 -2z"/>
<path d="M7349 5702 c9 -6 12 -20 8 -38 -5 -27 -4 -27 9 -9 19 26 14 49 -11
53 -15 2 -17 1 -6 -6z"/>
<path d="M7420 5701 c0 -5 9 -7 20 -4 11 3 20 7 20 9 0 2 -9 4 -20 4 -11 0
-20 -4 -20 -9z"/>
<path d="M415 5687 c15 -11 17 -22 12 -58 -5 -40 -4 -42 9 -25 20 29 18 73 -5
86 -28 14 -38 12 -16 -3z"/>
<path d="M770 5687 c28 -14 41 -53 28 -80 -5 -10 -7 -21 -5 -24 9 -8 35 51 29
67 -9 27 -35 50 -56 50 -19 0 -19 -1 4 -13z"/>
<path d="M895 5640 c0 -36 4 -60 11 -60 6 0 10 24 10 60 0 35 -4 60 -10 60 -7
0 -11 -24 -11 -60z"/>
<path d="M930 5696 c0 -2 7 -6 15 -10 8 -3 15 -1 15 4 0 6 -7 10 -15 10 -8 0
-15 -2 -15 -4z"/>
<path d="M1248 5640 c2 -33 7 -60 10 -60 4 0 5 27 4 60 -2 33 -7 60 -10 60 -4
0 -5 -27 -4 -60z"/>
<path d="M1295 5640 c0 -33 3 -60 8 -60 4 0 7 27 7 60 0 33 -3 60 -7 60 -5 0
-8 -27 -8 -60z"/>
<path d="M1392 5688 c-18 -18 -15 -24 20 -57 26 -24 30 -33 20 -43 -10 -10
-17 -10 -33 1 -18 10 -20 10 -17 -1 6 -18 36 -22 53 -8 23 19 18 48 -11 66
-17 11 -24 24 -21 36 6 21 5 22 -11 6z"/>
<path d="M1420 5696 c0 -2 7 -7 16 -10 8 -3 12 -2 9 4 -6 10 -25 14 -25 6z"/>
<path d="M1910 5696 c0 -2 7 -6 15 -10 8 -3 15 -1 15 4 0 6 -7 10 -15 10 -8 0
-15 -2 -15 -4z"/>
<path d="M2810 5685 c-11 -13 -8 -21 20 -50 20 -20 29 -38 25 -46 -5 -8 -4
-10 3 -5 20 12 13 45 -14 62 -17 11 -24 24 -21 36 6 22 3 23 -13 3z"/>
<path d="M2840 5696 c0 -2 7 -7 16 -10 8 -3 12 -2 9 4 -6 10 -25 14 -25 6z"/>
<path d="M3114 5675 c0 -14 6 -25 13 -25 6 0 17 -16 24 -35 15 -42 20 -43 36
-9 10 22 10 24 -2 14 -12 -10 -18 -3 -37 34 -25 51 -37 59 -34 21z"/>
<path d="M3217 5687 c-7 -19 4 -107 13 -107 5 0 8 27 7 60 -2 58 -9 75 -20 47z"/>
<path d="M3660 5680 c-11 -11 -20 -28 -20 -38 0 -21 27 -62 41 -62 6 0 3 10
-5 22 -21 30 -20 54 4 78 11 11 16 20 10 20 -5 0 -19 -9 -30 -20z"/>
<path d="M3720 5696 c0 -2 7 -6 15 -10 8 -3 15 -1 15 4 0 6 -7 10 -15 10 -8 0
-15 -2 -15 -4z"/>
<path d="M3810 5686 c0 -8 5 -18 11 -21 6 -4 8 -13 5 -21 -3 -7 -1 -16 4 -19
6 -4 10 -15 10 -26 0 -10 6 -19 14 -19 10 0 8 13 -8 60 -20 57 -36 77 -36 46z"/>
<path d="M3975 5684 c19 -19 13 -58 -13 -88 -16 -18 -16 -18 4 -8 24 13 34 32
34 66 0 22 -17 46 -33 46 -5 0 -1 -7 8 -16z"/>
<path d="M4063 5688 c-15 -20 -25 -38 -20 -38 3 0 12 11 21 25 17 26 16 35 -1
13z"/>
<path d="M4144 5673 c-31 -43 -36 -53 -26 -53 5 0 12 8 15 18 4 9 14 27 23 40
9 12 14 22 12 22 -2 0 -13 -12 -24 -27z"/>
<path d="M4330 5690 c12 -8 13 -13 2 -30 -10 -17 -10 -20 2 -20 8 0 16 -12 18
-27 4 -25 5 -26 13 -9 5 11 4 26 -3 36 -6 10 -8 27 -5 39 4 17 1 21 -18 21
-19 0 -21 -2 -9 -10z"/>
<path d="M6806 5676 c3 -14 1 -40 -5 -57 -9 -27 -9 -30 4 -19 17 14 20 85 5
95 -7 4 -9 -2 -4 -19z"/>
<path d="M7041 5660 c-1 -26 -7 -52 -13 -59 -11 -11 -10 -13 2 -9 21 7 35 63
22 91 -9 19 -11 16 -11 -23z"/>
<path d="M7227 5693 c-9 -9 -9 -81 1 -86 4 -3 7 17 7 44 0 27 0 49 -1 49 0 0
-4 -3 -7 -7z"/>
<path d="M7276 5678 c3 -15 1 -42 -5 -59 -9 -27 -9 -30 4 -19 17 14 20 68 5
90 -8 11 -9 8 -4 -12z"/>
<path d="M7507 5693 c-9 -9 -9 -81 1 -86 4 -3 7 17 7 44 0 27 0 49 -1 49 0 0
-4 -3 -7 -7z"/>
<path d="M7556 5676 c3 -14 1 -40 -5 -57 -9 -27 -9 -30 4 -19 17 14 20 85 5
95 -7 4 -9 -2 -4 -19z"/>
<path d="M310 5675 c8 -9 11 -30 7 -55 -3 -27 -1 -40 6 -40 8 0 11 18 9 55 -3
41 -8 55 -19 55 -13 0 -13 -3 -3 -15z"/>
<path d="M525 5634 c0 -54 0 -54 12 -25 9 21 10 38 3 56 -5 14 -11 25 -12 25
-2 0 -3 -25 -3 -56z"/>
<path d="M570 5671 c-13 -26 -13 -53 3 -74 10 -15 12 -9 12 38 0 30 -1 55 -2
55 -1 0 -7 -9 -13 -19z"/>
<path d="M615 5635 c0 -30 4 -50 9 -45 4 4 8 25 8 45 0 20 -4 41 -8 46 -5 4
-9 -16 -9 -46z"/>
<path d="M712 5678 c-25 -25 -7 -98 24 -98 13 0 13 2 -1 17 -12 11 -16 28 -13
55 2 21 3 38 3 38 -1 0 -6 -5 -13 -12z"/>
<path d="M1880 5671 c0 -11 12 -29 26 -40 16 -13 24 -27 20 -36 -7 -18 -27
-20 -44 -3 -9 9 -12 9 -12 1 0 -7 8 -14 19 -18 51 -16 72 41 25 71 -14 9 -23
23 -20 30 3 8 1 14 -4 14 -6 0 -10 -9 -10 -19z"/>
<path d="M2298 5635 c5 -71 22 -71 22 0 0 37 -4 55 -12 55 -9 0 -12 -16 -10
-55z"/>
<path d="M2371 5676 c-6 -7 -9 -21 -5 -30 10 -25 19 -19 19 14 0 35 1 34 -14
16z"/>
<path d="M2410 5683 c16 -8 12 -65 -7 -85 -10 -11 -12 -18 -4 -18 6 0 19 16
28 36 18 36 11 65 -15 70 -7 1 -8 0 -2 -3z"/>
<path d="M2467 5683 c-14 -14 -7 -91 10 -104 15 -13 16 -12 8 6 -5 11 -9 39
-8 63 1 44 0 46 -10 35z"/>
<path d="M2505 5634 c0 -54 7 -68 19 -38 10 26 7 71 -6 82 -10 8 -13 -2 -13
-44z"/>
<path d="M3934 5675 c-8 -19 2 -45 16 -45 8 0 7 6 0 20 -6 11 -8 25 -5 30 3 6
4 10 0 10 -3 0 -8 -7 -11 -15z"/>
<path d="M4210 5665 c-8 -21 1 -75 12 -75 2 0 3 22 3 50 0 27 -1 50 -3 50 -1
0 -7 -11 -12 -25z"/>
<path d="M4255 5635 c0 -47 2 -53 13 -38 13 18 16 52 6 77 -12 31 -19 15 -19
-39z"/>
<path d="M6081 5676 c-14 -17 -7 -36 14 -36 22 0 29 20 13 36 -13 13 -16 13
-27 0z"/>
<path d="M8652 5674 c-7 -8 -8 -14 -2 -14 5 0 10 -13 10 -30 0 -32 -16 -39
-39 -17 -11 10 -13 9 -9 -3 3 -8 18 -16 35 -18 29 -3 30 -3 27 43 -3 55 -5 58
-22 39z"/>
<path d="M380 5663 c0 -12 5 -25 11 -28 16 -11 17 -2 2 25 -12 24 -13 24 -13
3z"/>
<path d="M478 5674 c-13 -12 -9 -59 5 -78 12 -16 13 -13 10 20 -6 61 -8 66
-15 58z"/>
<path d="M5740 5640 c0 -22 4 -40 9 -40 12 0 18 28 13 58 -7 37 -22 25 -22
-18z"/>
<path d="M7410 5670 c0 -5 9 -10 19 -10 24 0 34 -25 20 -53 -10 -21 -10 -21 5
-3 22 27 20 42 -6 60 -26 18 -38 20 -38 6z"/>
<path d="M7693 5664 c-8 -21 13 -42 28 -27 13 13 5 43 -11 43 -6 0 -13 -7 -17
-16z"/>
<path d="M8825 5671 c-6 -11 9 -23 19 -14 9 9 7 23 -3 23 -6 0 -12 -4 -16 -9z"/>
<path d="M4484 5659 c-3 -6 0 -17 7 -25 18 -17 44 -2 36 20 -7 18 -33 21 -43
5z"/>
<path d="M4746 5654 c-9 -8 -16 -21 -16 -28 0 -17 21 -36 39 -36 12 0 11 3 -3
13 -13 10 -16 20 -11 37 5 17 9 19 16 9 4 -7 11 -10 14 -7 8 8 -3 28 -15 28
-5 0 -16 -7 -24 -16z"/>
<path d="M4860 5660 c0 -5 5 -10 11 -10 5 0 7 5 4 10 -3 6 -8 10 -11 10 -2 0
-4 -4 -4 -10z"/>
<path d="M5509 5661 c8 -5 12 -19 9 -35 -7 -34 10 -34 18 0 7 25 -7 44 -31 44
-5 0 -4 -4 4 -9z"/>
<path d="M6290 5660 c0 -5 5 -10 10 -10 6 0 10 5 10 10 0 6 -4 10 -10 10 -5 0
-10 -4 -10 -10z"/>
<path d="M6356 5639 c2 -17 6 -35 9 -40 8 -13 32 -11 41 3 5 8 2 9 -9 5 -10
-4 -18 -1 -19 6 0 7 -2 17 -3 22 -2 6 -3 16 -4 23 0 6 -5 12 -10 12 -4 0 -7
-14 -5 -31z"/>
<path d="M6416 5630 c15 -22 31 -40 35 -40 13 0 11 14 -3 28 -10 10 -10 17 0
32 7 11 8 20 3 20 -5 0 -12 -6 -15 -12 -5 -10 -7 -10 -12 0 -3 6 -12 12 -20
12 -10 0 -7 -11 12 -40z"/>
<path d="M6480 5660 c0 -5 5 -10 10 -10 6 0 10 5 10 10 0 6 -4 10 -10 10 -5 0
-10 -4 -10 -10z"/>
<path d="M7857 5663 c-8 -13 11 -63 25 -63 11 0 10 14 -1 26 -5 5 -11 18 -13
29 -2 13 -6 16 -11 8z"/>
<path d="M7898 5664 c-4 -3 0 -20 8 -36 12 -22 19 -27 27 -19 8 8 7 14 -5 23
-9 7 -17 19 -20 26 -2 7 -7 10 -10 6z"/>
<path d="M7970 5665 c0 -15 32 -66 38 -61 3 4 0 12 -6 18 -7 7 -12 20 -12 30
0 10 -4 18 -10 18 -5 0 -10 -2 -10 -5z"/>
<path d="M8090 5666 c0 -16 39 -66 44 -58 3 6 1 12 -4 14 -6 2 -12 12 -14 23
-2 16 -26 36 -26 21z"/>
<path d="M8145 5658 c-4 -9 1 -24 11 -37 17 -20 34 -20 34 0 0 6 -4 8 -9 5 -5
-4 -14 6 -19 21 -8 23 -11 25 -17 11z"/>
<path d="M8265 5660 c-3 -5 3 -10 14 -10 12 0 21 5 21 10 0 6 -6 10 -14 10 -8
0 -18 -4 -21 -10z"/>
<path d="M8350 5656 c0 -9 5 -16 10 -16 6 0 10 4 10 9 0 6 -4 13 -10 16 -5 3
-10 -1 -10 -9z"/>
<path d="M8400 5631 c0 -23 2 -41 4 -41 8 0 12 71 4 76 -4 3 -8 -13 -8 -35z"/>
<path d="M8440 5655 c7 -8 10 -26 8 -40 -3 -14 -2 -25 2 -25 15 0 17 69 2 75
-22 8 -25 6 -12 -10z"/>
<path d="M8489 5657 c8 -10 11 -27 7 -42 -4 -15 -2 -25 4 -25 17 0 8 73 -10
78 -13 5 -13 3 -1 -11z"/>
<path d="M8545 5654 c-8 -9 -15 -21 -15 -28 0 -16 21 -36 38 -36 9 0 6 7 -9
19 -22 17 -22 19 -6 35 9 10 17 13 17 7 0 -6 5 -11 10 -11 15 0 12 17 -5 24
-8 3 -21 -2 -30 -10z"/>
<path d="M8913 5659 c20 -12 22 -39 5 -58 -11 -11 -10 -13 2 -9 31 9 19 79
-14 78 -6 0 -3 -5 7 -11z"/>
<path d="M9358 5658 c7 -7 13 -26 13 -42 2 -31 2 -31 8 4 6 33 -2 49 -23 50
-6 0 -5 -5 2 -12z"/>
<path d="M9400 5661 c0 -6 5 -11 10 -11 6 0 10 -13 10 -30 0 -16 4 -30 8 -30
14 0 -1 73 -16 78 -6 2 -12 -1 -12 -7z"/>
<path d="M1478 5654 c-11 -10 -10 -56 2 -74 5 -8 11 -12 13 -10 8 9 -8 92 -15
84z"/>
<path d="M1738 5654 c-12 -11 -9 -72 3 -79 6 -4 12 -5 13 -4 7 8 -10 90 -16
83z"/>
<path d="M2107 5654 c-7 -7 2 -65 12 -77 4 -4 6 11 5 33 -2 43 -6 54 -17 44z"/>
<path d="M2643 5644 c-3 -8 -1 -20 6 -27 14 -14 47 15 37 32 -10 16 -36 13
-43 -5z"/>
<path d="M3346 5652 c-7 -12 3 -70 13 -77 8 -4 6 73 -2 81 -3 3 -8 1 -11 -4z"/>
<path d="M4069 5649 c-1 -8 -3 -26 -5 -41 -2 -18 2 -28 10 -28 9 0 12 12 10
36 -3 36 -13 59 -15 33z"/>
<path d="M4159 5649 c-5 -55 -4 -69 8 -69 9 0 11 11 8 36 -5 39 -14 57 -16 33z"/>
<path d="M5000 5645 c7 -8 10 -22 6 -30 -3 -9 -2 -13 4 -10 17 10 12 55 -6 55
-13 0 -14 -3 -4 -15z"/>
<path d="M8020 5648 c1 -16 28 -53 35 -47 6 7 -18 59 -27 59 -5 0 -8 -6 -8
-12z"/>
<path d="M8315 5640 c-8 -24 10 -50 34 -49 11 0 10 3 -6 11 -17 8 -21 17 -17
34 8 29 -2 32 -11 4z"/>
<path d="M8610 5649 c0 -5 5 -7 10 -4 6 3 10 8 10 11 0 2 -4 4 -10 4 -5 0 -10
-5 -10 -11z"/>
<path d="M8706 5645 c4 -8 8 -15 10 -15 2 0 4 7 4 15 0 8 -4 15 -10 15 -5 0
-7 -7 -4 -15z"/>
<path d="M8784 5646 c-9 -22 -1 -49 16 -54 13 -5 13 -3 1 11 -7 9 -11 26 -8
37 6 23 -1 27 -9 6z"/>
<path d="M8877 5653 c-13 -12 -7 -40 10 -54 15 -13 15 -12 6 5 -6 10 -8 27 -6
37 5 20 1 24 -10 12z"/>
<path d="M8965 5640 c-7 -21 9 -50 27 -50 5 0 2 7 -7 16 -9 9 -13 24 -10 35 4
10 4 19 1 19 -2 0 -8 -9 -11 -20z"/>
<path d="M9227 5653 c-10 -9 -9 -51 1 -57 5 -3 8 11 8 29 -1 19 -1 35 -2 35 0
0 -4 -3 -7 -7z"/>
<path d="M9277 5641 c3 -11 -1 -29 -8 -38 -12 -14 -12 -16 1 -11 18 6 26 46
11 61 -7 7 -8 3 -4 -12z"/>
<path d="M9320 5625 c0 -19 3 -35 8 -35 4 0 7 16 7 35 0 19 -3 35 -7 35 -5 0
-8 -16 -8 -35z"/>
<path d="M945 5640 c-3 -5 -1 -10 4 -10 6 0 11 5 11 10 0 6 -2 10 -4 10 -3 0
-8 -4 -11 -10z"/>
<path d="M1010 5616 c0 -20 5 -36 10 -36 6 0 10 13 10 29 0 17 -4 33 -10 36
-6 4 -10 -8 -10 -29z"/>
<path d="M1060 5615 c0 -19 4 -35 9 -35 5 0 7 10 4 21 -4 15 0 27 12 35 18 13
18 14 -3 14 -18 0 -22 -6 -22 -35z"/>
<path d="M1120 5615 c0 -19 5 -35 10 -35 6 0 8 10 4 24 -4 17 0 27 13 35 17
10 16 10 -4 11 -20 0 -23 -5 -23 -35z"/>
<path d="M1182 5638 c-18 -18 -14 -46 8 -58 23 -13 26 -5 5 16 -20 20 -8 46
17 38 14 -4 18 -2 14 5 -9 14 -29 14 -44 -1z"/>
<path d="M1530 5609 c0 -24 4 -38 10 -34 6 3 10 19 10 35 0 15 6 31 13 33 6 3
2 6 -10 6 -20 1 -23 -4 -23 -40z"/>
<path d="M1592 5638 c-7 -7 -12 -20 -12 -29 0 -19 27 -45 37 -35 4 3 -1 12
-11 19 -11 8 -15 19 -10 30 7 18 24 23 24 7 0 -5 5 -10 10 -10 6 0 10 7 10 15
0 18 -31 20 -48 3z"/>
<path d="M1662 5638 c-7 -7 -12 -20 -12 -29 0 -19 27 -45 37 -35 4 3 -1 12
-11 19 -11 8 -15 19 -10 30 7 18 24 23 24 7 0 -5 5 -10 10 -10 6 0 10 7 10 15
0 18 -31 20 -48 3z"/>
<path d="M1967 5618 c7 -41 9 -43 39 -43 21 -1 24 3 24 37 0 46 -18 51 -22 6
-2 -18 -7 -33 -13 -33 -5 0 -11 15 -13 33 -2 17 -7 32 -12 32 -5 0 -7 -15 -3
-32z"/>
<path d="M2061 5611 c-1 -34 2 -42 11 -33 8 8 8 20 1 44 l-11 33 -1 -44z"/>
<path d="M2160 5635 c-25 -30 15 -85 42 -56 7 8 8 11 3 8 -19 -10 -38 9 -30
32 5 18 9 20 21 10 11 -9 14 -8 14 5 0 20 -33 21 -50 1z"/>
<path d="M2920 5616 c0 -23 5 -36 13 -36 9 0 12 10 9 30 -6 44 -22 47 -22 6z"/>
<path d="M2970 5615 c0 -46 15 -46 16 0 0 19 -3 35 -8 35 -4 0 -8 -16 -8 -35z"/>
<path d="M3010 5635 c7 -8 10 -24 7 -35 -3 -12 0 -20 7 -20 8 0 11 12 8 35 -3
23 -9 35 -19 35 -13 0 -13 -3 -3 -15z"/>
<path d="M3300 5616 c0 -20 5 -36 10 -36 6 0 10 13 10 29 0 17 -4 33 -10 36
-6 4 -10 -8 -10 -29z"/>
<path d="M3400 5631 c-5 -11 -7 -26 -4 -35 6 -16 34 -30 34 -17 0 5 -5 11 -11
13 -7 2 -9 13 -5 25 4 14 12 20 22 16 7 -3 14 0 14 6 0 19 -39 12 -50 -8z"/>
<path d="M3465 5631 c-6 -19 2 -51 14 -51 3 0 6 16 6 35 0 38 -10 46 -20 16z"/>
<path d="M3509 5642 c8 -6 12 -20 9 -37 -5 -25 -4 -26 11 -11 17 18 7 46 -20
54 -12 3 -12 2 0 -6z"/>
<path d="M9055 5627 c10 -15 20 -25 23 -22 3 3 -5 16 -17 28 l-23 22 17 -28z"/>
<path d="M3790 5629 c0 -5 5 -7 10 -4 6 3 10 8 10 11 0 2 -4 4 -10 4 -5 0 -10
-5 -10 -11z"/>
<path d="M4025 5630 c-3 -5 -1 -10 4 -10 6 0 11 5 11 10 0 6 -2 10 -4 10 -3 0
-8 -4 -11 -10z"/>
<path d="M6326 5621 c-5 -7 -3 -18 3 -24 14 -14 20 -6 11 17 -5 15 -9 16 -14
7z"/>
<path d="M3107 5600 c-3 -12 0 -20 8 -20 8 0 11 8 8 20 -3 11 -7 20 -8 20 -1
0 -5 -9 -8 -20z"/>
<path d="M5565 5610 c-3 -5 -1 -10 4 -10 6 0 11 5 11 10 0 6 -2 10 -4 10 -3 0
-8 -4 -11 -10z"/>
<path d="M7325 5612 c-13 -13 -3 -22 25 -22 17 0 30 4 30 9 0 10 -47 21 -55
13z"/>
<path d="M8720 5604 c0 -8 5 -12 10 -9 6 3 10 10 10 16 0 5 -4 9 -10 9 -5 0
-10 -7 -10 -16z"/>
<path d="M9150 5605 c7 -8 22 -15 34 -15 18 0 17 2 -8 15 -36 19 -42 19 -26 0z"/>
<path d="M987 5603 c-10 -9 -9 -23 1 -23 5 0 9 7 9 15 0 17 -1 18 -10 8z"/>
<path d="M2894 5599 c-3 -6 -1 -16 4 -21 8 -8 11 -5 9 11 -1 24 -3 25 -13 10z"/>
<path d="M3274 5599 c-3 -6 -1 -16 4 -21 8 -8 11 -5 9 11 -1 24 -3 25 -13 10z"/>
<path d="M3776 5601 c-4 -7 -5 -15 -2 -18 9 -9 19 4 14 18 -4 11 -6 11 -12 0z"/>
<path d="M4860 5600 c0 -5 5 -10 10 -10 6 0 10 5 10 10 0 6 -4 10 -10 10 -5 0
-10 -4 -10 -10z"/>
<path d="M5235 5600 c3 -5 8 -10 11 -10 2 0 4 5 4 10 0 6 -5 10 -11 10 -5 0
-7 -4 -4 -10z"/>
<path d="M6485 5600 c3 -5 8 -10 11 -10 2 0 4 5 4 10 0 6 -5 10 -11 10 -5 0
-7 -4 -4 -10z"/>
<path d="M8210 5600 c0 -5 5 -10 11 -10 5 0 7 5 4 10 -3 6 -8 10 -11 10 -2 0
-4 -4 -4 -10z"/>
<path d="M8260 5600 c0 -5 5 -10 10 -10 6 0 10 5 10 10 0 6 -4 10 -10 10 -5 0
-10 -4 -10 -10z"/>
<path d="M8825 5600 c-3 -5 1 -10 9 -10 9 0 16 5 16 10 0 6 -4 10 -9 10 -6 0
-13 -4 -16 -10z"/>
<path d="M1790 5580 c0 -19 3 -21 12 -12 9 9 9 15 0 24 -9 9 -12 7 -12 -12z"/>
<path d="M2800 5591 c0 -9 30 -24 36 -18 2 1 -6 8 -16 15 -11 7 -20 8 -20 3z"/>
<path d="M3560 5591 c0 -6 5 -13 10 -16 6 -3 10 1 10 9 0 9 -4 16 -10 16 -5 0
-10 -4 -10 -9z"/>
<path d="M3735 5590 c-3 -5 -2 -10 4 -10 5 0 13 5 16 10 3 6 2 10 -4 10 -5 0
-13 -4 -16 -10z"/>
<path d="M6895 5590 c3 -5 11 -10 16 -10 6 0 7 5 4 10 -3 6 -11 10 -16 10 -6
0 -7 -4 -4 -10z"/>
<path d="M4305 5580 c3 -5 8 -10 11 -10 2 0 4 5 4 10 0 6 -5 10 -11 10 -5 0
-7 -4 -4 -10z"/>
<path d="M4835 5458 c-291 -4 -1438 -8 -2547 -10 -1340 -2 -2017 -6 -2015 -13
3 -7 640 -9 1893 -8 1039 1 3103 3 4586 3 1729 1 2699 4 2703 10 4 6 0 12 -7
14 -23 8 -4069 11 -4613 4z"/>
<path d="M6380 5105 l0 -75 40 0 c53 0 80 27 80 78 0 50 -24 72 -78 72 l-42 0
0 -75z m74 55 c22 -8 26 -16 26 -48 0 -45 -14 -62 -52 -62 -27 0 -28 2 -28 53
0 70 6 76 54 57z"/>
<path d="M6571 5163 c-9 -17 -51 -124 -51 -130 0 -2 5 -3 10 -3 6 0 15 12 20
26 8 20 16 25 38 22 16 -2 31 -12 37 -25 10 -23 25 -31 25 -14 0 20 -48 135
-58 139 -6 2 -15 -5 -21 -15z m32 -43 c3 -13 0 -23 -9 -27 -21 -8 -27 2 -20
32 7 29 21 26 29 -5z"/>
<path d="M6660 5170 c0 -5 11 -10 25 -10 24 0 25 -2 25 -65 0 -37 4 -65 10
-65 6 0 10 28 10 65 0 63 1 65 25 65 14 0 25 5 25 10 0 6 -27 10 -60 10 -33 0
-60 -4 -60 -10z"/>
<path d="M6810 5105 l0 -75 55 0 c30 0 55 5 55 10 0 6 -20 10 -45 10 -41 0
-45 2 -45 25 0 23 4 25 43 26 l42 1 -42 10 c-33 7 -43 14 -43 29 0 16 7 19 39
19 22 0 43 5 46 10 4 6 -15 10 -49 10 l-56 0 0 -75z"/>
<path d="M478 5095 c2 -46 7 -73 13 -69 6 3 10 25 9 48 -1 22 -1 45 -1 50 1 5
19 -16 42 -47 22 -32 44 -57 50 -57 5 0 9 34 9 75 0 87 -18 102 -22 18 l-3
-57 -38 57 c-51 79 -63 75 -59 -18z"/>
<path d="M650 5103 c-14 -37 -26 -71 -28 -75 -2 -5 1 -8 7 -8 7 0 16 11 21 25
5 14 17 25 25 25 25 0 55 -19 55 -35 0 -8 5 -15 10 -15 15 0 12 18 -14 85 -13
33 -29 61 -37 63 -9 2 -23 -21 -39 -65z m53 7 c6 -23 -10 -37 -25 -22 -11 11
-1 55 12 47 4 -2 10 -14 13 -25z"/>
<path d="M780 5094 c0 -42 3 -74 7 -70 4 4 6 28 4 54 -3 55 11 49 32 -13 8
-21 18 -40 24 -42 6 -2 19 20 30 49 l18 53 3 -52 c5 -81 22 -63 22 22 0 57 -3
75 -14 75 -12 0 -46 -71 -46 -98 0 -28 -19 -8 -37 40 -30 79 -43 73 -43 -18z"/>
<path d="M952 5098 l3 -73 58 -3 c33 -2 57 1 57 7 0 5 -21 11 -47 13 -40 3
-48 6 -48 23 0 16 8 21 43 23 52 4 46 22 -9 22 -32 0 -39 3 -39 20 0 17 7 20
45 20 25 0 45 5 45 10 0 6 -25 10 -55 10 l-56 0 3 -72z"/>
<path d="M515 4406 c-8 -20 -22 -52 -30 -73 -18 -42 -10 -58 12 -25 20 29 73
31 80 2 5 -20 23 -28 23 -11 0 21 -49 136 -59 139 -6 2 -18 -12 -26 -32z m35
-15 c0 -5 3 -16 6 -25 4 -12 0 -16 -15 -16 -22 0 -25 8 -15 34 7 17 24 22 24
7z"/>
<path d="M630 4365 l0 -75 43 0 c55 0 77 22 77 78 0 49 -26 72 -82 72 l-38 0
0 -75z m88 43 c7 -7 12 -26 12 -43 0 -38 -16 -55 -52 -55 -27 0 -28 1 -28 55
0 54 1 55 28 55 15 0 33 -5 40 -12z"/>
<path d="M780 4365 l0 -75 44 0 c57 0 76 19 76 75 0 53 -25 75 -82 75 l-38 0
0 -75z m96 26 c9 -17 9 -32 2 -52 -8 -24 -15 -29 -44 -29 l-34 0 0 56 0 55 32
-3 c22 -2 36 -10 44 -27z"/>
<path d="M940 4365 c0 -48 4 -75 11 -75 7 0 10 12 7 30 -4 29 -3 30 34 30 36
0 38 -2 38 -30 0 -19 5 -30 14 -30 11 0 12 8 6 34 -4 19 -5 46 -3 60 8 38 -13
56 -63 56 l-44 0 0 -75z m88 33 c-2 -17 -11 -24 -32 -26 -33 -4 -51 10 -43 32
4 11 19 16 42 16 32 0 36 -3 33 -22z"/>
<path d="M1090 4365 l0 -75 55 0 c30 0 55 5 55 10 0 6 -20 10 -45 10 -41 0
-45 2 -45 25 0 23 4 25 43 26 l42 2 -40 6 c-32 5 -41 11 -43 29 -3 20 1 22 42
22 25 0 46 5 46 10 0 6 -25 10 -55 10 l-55 0 0 -75z"/>
<path d="M1242 4428 c-28 -28 -11 -58 43 -75 39 -13 45 -40 10 -49 -18 -4 -32
-1 -45 11 -27 25 -37 12 -11 -14 25 -25 49 -27 79 -5 40 28 27 62 -33 81 -41
13 -46 43 -8 43 16 0 34 -5 41 -12 6 -6 14 -9 17 -6 3 3 -1 13 -10 22 -19 19
-66 21 -83 4z"/>
<path d="M1380 4420 c-16 -29 3 -56 44 -64 37 -7 51 -27 33 -45 -17 -17 -44
-13 -67 11 -17 18 -20 19 -20 5 0 -45 88 -59 110 -18 15 30 2 49 -43 64 -23 7
-42 20 -42 28 0 21 44 23 66 3 15 -14 19 -14 19 -3 0 41 -80 56 -100 19z"/>
<path d="M282 4031 c2 -5 1557 -11 3623 -15 1991 -3 4051 -9 4578 -12 885 -7
957 -6 957 9 0 16 -112 17 -1462 19 -4179 8 -7699 7 -7696 -1z"/>
<path d="M380 3881 c0 -5 9 -11 20 -14 19 -5 20 -14 20 -146 l0 -141 -26 -6
c-46 -12 -11 -21 56 -15 50 5 60 8 42 14 -22 8 -22 11 -20 150 l3 142 33 3
c75 7 111 -64 56 -107 -15 -12 -37 -21 -50 -21 -13 0 -24 -4 -24 -9 0 -5 27
-44 60 -85 33 -42 60 -79 60 -82 0 -4 -16 -27 -36 -51 -32 -39 -35 -47 -22
-59 12 -12 18 -8 48 31 18 25 37 45 41 45 3 0 26 -20 51 -45 34 -34 50 -43 67
-38 20 5 18 10 -33 55 -31 27 -56 55 -56 62 0 7 9 21 21 32 42 37 63 75 49 87
-9 9 -22 0 -59 -41 l-47 -53 -20 23 c-11 13 -34 42 -52 65 l-32 41 45 26 c74
44 87 93 33 126 -27 16 -51 20 -130 20 -54 0 -98 -4 -98 -9z"/>
<path d="M277 1474 c-4 -4 -7 -10 -7 -14 0 -3 782 -6 1738 -6 1449 1 1851 -2
2427 -18 567 -15 948 -18 2135 -16 795 1 1573 3 1730 5 157 2 478 4 713 5 294
0 428 3 425 10 -2 8 -423 10 -1368 8 -2279 -5 -3232 -2 -3615 12 -399 14
-4165 27 -4178 14z"/>
<path d="M1098 1366 c-15 -7 -23 -20 -23 -36 0 -21 8 -27 43 -38 44 -14 58
-44 26 -56 -25 -10 -32 -7 -54 16 -15 16 -20 18 -20 7 0 -24 22 -39 56 -39 37
0 57 20 52 52 -2 17 -13 25 -43 34 -42 11 -51 30 -23 47 13 9 22 7 37 -8 23
-20 41 -14 22 9 -17 20 -46 25 -73 12z"/>
<path d="M1877 1374 c-11 -11 -8 -154 3 -154 6 0 10 23 10 50 0 28 4 50 8 50
5 0 15 -21 23 -47 8 -27 19 -48 24 -48 6 1 19 25 30 55 l20 55 3 -58 c2 -33 7
-55 13 -52 13 8 12 155 -1 155 -6 0 -23 -28 -39 -62 l-28 -63 -19 59 c-20 58
-33 74 -47 60z"/>
<path d="M2114 1366 c-3 -7 -4 -42 -2 -77 l3 -64 36 -3 c52 -4 79 22 82 77 1
35 -3 47 -22 62 -27 22 -89 25 -97 5z m84 -18 c17 -17 15 -83 -2 -98 -8 -6
-25 -10 -38 -8 -19 2 -23 10 -26 47 -2 24 -1 50 2 57 7 17 48 18 64 2z"/>
<path d="M2468 1370 c-25 -15 -41 -72 -29 -103 14 -36 45 -50 92 -42 38 7 39
8 39 46 0 37 -2 39 -30 39 -16 0 -30 -4 -30 -10 0 -5 9 -10 20 -10 11 0 20 -6
20 -13 0 -19 -21 -37 -45 -37 -29 0 -45 19 -45 53 0 61 41 87 82 50 25 -22 36
-8 13 17 -19 21 -59 26 -87 10z"/>
<path d="M310 1295 c0 -85 17 -103 22 -22 l3 52 16 -50 c9 -27 22 -50 29 -50
7 0 20 19 29 42 24 61 33 64 30 9 -2 -33 1 -51 9 -54 10 -3 12 14 10 72 -4 93
-23 99 -52 17 -18 -49 -21 -52 -33 -35 -7 10 -18 35 -24 56 -5 22 -16 38 -24
38 -12 0 -15 -16 -15 -75z"/>
<path d="M680 1326 c0 -24 -3 -58 -7 -76 -5 -25 -3 -32 8 -28 8 2 15 14 17 26
4 29 16 28 30 -3 6 -14 16 -25 22 -25 14 0 12 12 -6 38 -15 21 -15 25 2 43 25
27 9 37 -19 11 -29 -27 -37 -20 -30 24 4 22 2 34 -6 34 -6 0 -11 -18 -11 -44z"/>
<path d="M900 1311 c0 -41 -5 -62 -16 -72 -13 -11 -17 -10 -25 4 -11 18 -29
23 -29 7 0 -5 11 -17 25 -26 24 -16 27 -16 45 1 16 14 20 31 20 82 0 35 -4 63
-10 63 -6 0 -10 -26 -10 -59z"/>
<path d="M2617 1363 c-3 -5 -7 -21 -8 -38 -4 -28 -2 -30 31 -30 29 0 36 -4 38
-23 4 -27 -23 -40 -50 -23 -27 16 -38 3 -14 -15 26 -18 51 -18 70 2 31 30 9
84 -35 84 -10 0 -19 7 -19 15 0 10 10 15 30 15 17 0 30 5 30 10 0 12 -67 14
-73 3z"/>
<path d="M2732 1358 c-12 -12 -17 -38 -6 -38 3 0 14 10 24 23 17 20 20 21 35
6 15 -15 12 -49 -5 -49 -14 0 -60 -49 -60 -65 0 -11 11 -15 44 -15 25 0 48 5
51 10 4 6 -8 10 -29 10 -20 0 -36 3 -36 6 0 4 17 21 37 39 35 30 37 34 25 59
-8 19 -19 26 -40 26 -15 0 -33 -5 -40 -12z"/>
<path d="M2852 1358 c-21 -21 -15 -68 11 -77 12 -5 28 -6 35 -4 17 7 15 -22
-3 -37 -13 -10 -19 -10 -35 5 -11 10 -20 13 -20 8 0 -18 28 -35 52 -31 34 5
56 73 37 114 -15 32 -55 44 -77 22z m56 -35 c-2 -20 -9 -28 -23 -28 -14 0 -21
8 -23 28 -3 23 0 27 23 27 23 0 26 -4 23 -27z"/>
<path d="M2950 1360 c0 -5 18 -10 40 -10 l40 0 -25 -51 c-15 -28 -25 -58 -23
-67 3 -14 42 54 76 131 2 4 -21 7 -52 7 -31 0 -56 -4 -56 -10z"/>
<path d="M3097 1352 c-21 -23 -23 -104 -3 -121 26 -22 70 -9 81 23 8 24 6 31
-14 47 -14 12 -31 17 -42 14 -25 -8 -26 20 -2 34 13 7 23 5 37 -7 17 -16 18
-16 15 3 -6 27 -50 32 -72 7z m53 -67 c17 -20 5 -45 -20 -45 -23 0 -35 22 -26
45 7 19 30 19 46 0z"/>
<path d="M1452 1344 c-5 -9 -8 -24 -6 -33 1 -9 6 -33 9 -53 4 -24 11 -38 20
-38 17 0 20 16 5 25 -13 8 -13 62 0 70 8 5 8 11 1 19 -6 7 -8 16 -4 19 3 4 1
7 -5 7 -6 0 -15 -7 -20 -16z"/>
<path d="M1538 1333 c-9 -2 -19 -11 -22 -19 -6 -17 5 -19 21 -3 12 12 43 6 43
-9 0 -5 -15 -13 -32 -18 -26 -8 -33 -15 -33 -34 0 -23 4 -25 45 -26 l45 -1 -5
50 c-5 51 -23 68 -62 60z m42 -73 c0 -15 -38 -32 -45 -20 -3 5 -3 15 0 20 8
13 45 13 45 0z"/>
<path d="M7057 1333 c-19 -31 -54 -143 -46 -148 5 -4 13 5 19 19 7 20 17 26
40 26 19 0 30 -5 30 -14 0 -14 28 -42 35 -34 6 6 -44 130 -60 146 -7 8 -15 10
-18 5z m33 -75 c0 -4 -9 -8 -20 -8 -21 0 -24 8 -13 36 6 16 7 16 20 -2 7 -10
13 -21 13 -26z"/>
<path d="M7275 1331 c-3 -5 -5 -39 -4 -75 1 -59 4 -67 23 -71 29 -7 77 8 90
28 8 12 7 23 -2 38 -10 16 -11 24 -1 35 19 23 -16 54 -62 54 -21 0 -40 -4 -44
-9z m82 -27 c6 -15 -11 -34 -32 -34 -5 0 -16 4 -24 9 -21 14 -5 41 24 41 14 0
28 -7 32 -16z m3 -60 c11 -12 10 -18 -3 -31 -13 -14 -21 -14 -42 -5 -26 12
-33 37 -12 45 24 10 45 7 57 -9z"/>
<path d="M7590 1265 c0 -80 17 -104 22 -32 2 35 7 43 26 45 20 3 22 -1 22 -43
0 -33 4 -45 13 -43 16 6 19 46 5 81 -8 21 -17 27 -39 27 -22 0 -29 5 -29 20 0
11 -4 20 -10 20 -6 0 -10 -32 -10 -75z"/>
<path d="M7710 1330 c0 -5 5 -10 10 -10 6 0 10 5 10 10 0 6 -4 10 -10 10 -5 0
-10 -4 -10 -10z"/>
<path d="M8000 1265 c0 -82 19 -107 21 -27 l1 47 21 -47 c11 -27 26 -48 32
-48 6 0 17 23 24 51 15 57 31 50 31 -13 0 -21 5 -38 10 -38 7 0 10 27 8 73 -4
86 -23 97 -49 27 -9 -24 -20 -45 -25 -47 -5 -2 -17 19 -27 47 -28 77 -47 67
-47 -25z"/>
<path d="M8240 1266 l0 -76 36 0 c50 0 72 15 84 58 15 54 -11 86 -74 90 l-46
3 0 -75z m88 42 c17 -17 15 -73 -2 -88 -8 -6 -25 -10 -38 -8 -20 3 -23 9 -26
56 -3 51 -3 52 25 52 16 0 34 -5 41 -12z"/>
<path d="M8596 1288 c-31 -72 -39 -98 -28 -98 5 0 14 11 19 23 9 19 17 23 42
19 18 -2 33 -12 36 -23 7 -21 25 -26 25 -6 0 24 -46 131 -58 135 -7 2 -22 -19
-36 -50z m47 -8 c6 -23 -3 -32 -22 -21 -8 5 -11 17 -6 30 7 24 20 21 28 -9z"/>
<path d="M8961 1331 c-8 -5 -14 -32 -16 -65 -3 -48 -1 -57 17 -67 45 -24 100
27 69 65 -8 10 -9 16 -1 21 14 9 13 21 -6 39 -17 18 -42 20 -63 7z m49 -31 c0
-13 -7 -20 -19 -20 -22 0 -35 15 -26 30 12 19 45 11 45 -10z m5 -65 c0 -31
-49 -28 -53 3 -3 20 0 23 25 20 20 -2 28 -8 28 -23z"/>
<path d="M9110 1332 c0 -5 -10 -14 -22 -20 -17 -8 -19 -11 -6 -11 18 -1 31
-42 24 -78 -3 -16 0 -23 10 -23 11 0 14 15 14 64 0 36 -4 68 -10 71 -5 3 -10
2 -10 -3z"/>
<path d="M9201 1331 c-17 -11 -25 -110 -10 -128 17 -19 53 -16 74 7 15 17 16
24 6 46 -8 19 -9 30 -1 39 22 27 -35 57 -69 36z m47 -28 c5 -17 -26 -29 -40
-15 -6 6 -7 15 -3 22 9 14 37 9 43 -7z m1 -52 c21 -14 5 -43 -21 -39 -29 4
-39 48 -11 48 10 0 24 -4 32 -9z"/>
<path d="M9310 1323 c0 -10 -3 -28 -6 -40 -6 -21 -4 -22 23 -17 33 7 57 -14
47 -40 -7 -18 -35 -21 -51 -5 -6 6 -17 9 -23 7 -9 -3 -7 -9 5 -21 25 -25 66
-18 84 15 14 24 14 28 -3 47 -11 12 -30 21 -43 21 -36 0 -23 24 15 28 46 5 39
22 -8 22 -31 0 -40 -4 -40 -17z"/>
<path d="M503 1323 c-7 -2 -13 -11 -13 -19 0 -13 3 -13 21 0 21 14 49 12 49
-5 0 -5 -14 -12 -32 -17 -43 -11 -59 -38 -33 -58 11 -8 26 -11 35 -8 8 4 24 6
36 6 19 -1 20 2 14 41 -3 24 -10 48 -14 55 -7 12 -40 15 -63 5z m57 -62 c0
-16 -30 -33 -47 -26 -17 6 -17 7 1 21 22 16 46 19 46 5z"/>
<path d="M605 1305 c-6 -24 -1 -73 8 -82 4 -3 7 8 7 25 0 19 8 40 20 52 26 26
25 28 -5 26 -17 0 -27 -8 -30 -21z"/>
<path d="M1220 1315 c-16 -19 -16 -60 0 -80 7 -8 25 -15 41 -15 63 0 65 102 3
108 -19 2 -36 -3 -44 -13z m58 -7 c26 -26 1 -85 -31 -72 -28 10 -17 84 13 84
3 0 11 -5 18 -12z"/>
<path d="M1330 1275 c0 -64 17 -75 22 -14 2 26 10 46 20 53 23 14 32 2 33 -44
0 -48 19 -58 23 -13 5 51 -12 73 -58 73 l-40 0 0 -55z"/>
<path d="M1630 1311 c-5 -11 -10 -29 -10 -40 0 -24 43 -56 65 -47 9 3 15 0 15
-8 0 -19 -30 -29 -47 -15 -15 13 -29 6 -19 -9 10 -17 44 -20 65 -5 18 12 21
25 21 79 l0 64 -40 0 c-29 0 -42 -5 -50 -19z m65 -31 c0 -29 -4 -36 -23 -38
-28 -4 -39 21 -23 54 17 38 46 28 46 -16z"/>
<path d="M6459 1325 c0 -3 -1 -18 -1 -35 0 -86 3 -110 13 -110 7 0 10 18 7 50
-1 28 0 50 3 50 4 0 21 -22 39 -50 46 -71 60 -66 60 19 0 86 -18 105 -22 24
l-3 -58 -39 58 c-34 50 -54 68 -57 52z"/>
<path d="M6905 1320 c3 -5 8 -10 11 -10 2 0 4 5 4 10 0 6 -5 10 -11 10 -5 0
-7 -4 -4 -10z"/>
<path d="M7530 1276 c0 -30 3 -61 6 -70 7 -17 34 -22 34 -6 0 6 -4 10 -10 10
-14 0 -13 67 1 72 8 3 8 10 -2 26 -22 35 -29 26 -29 -32z"/>
<path d="M8737 1316 c-15 -12 -16 -14 -2 -20 10 -4 15 -19 15 -51 0 -25 5 -45
10 -45 6 0 10 28 10 65 0 68 -3 73 -33 51z"/>
<path d="M8850 1314 c-17 -9 -20 -14 -9 -14 21 0 29 -20 29 -71 0 -21 5 -39
10 -39 6 0 10 30 10 70 0 39 -3 70 -7 69 -5 -1 -19 -7 -33 -15z"/>
<path d="M6845 1311 c3 -5 1 -12 -4 -16 -7 -4 -7 -15 -1 -31 6 -14 10 -39 10
-55 0 -16 5 -29 13 -29 8 0 12 16 10 53 -1 57 -10 87 -25 87 -5 0 -7 -4 -3 -9z"/>
<path d="M7421 1286 c-7 -8 -8 -17 -3 -20 6 -3 15 1 22 9 13 15 43 9 37 -8 -2
-7 -14 -14 -27 -17 -35 -8 -49 -36 -27 -57 14 -14 21 -15 37 -6 12 8 21 9 25
3 3 -6 10 -10 15 -10 12 0 1 90 -13 108 -13 16 -52 15 -66 -2z m59 -60 c0 -18
-31 -29 -44 -16 -8 8 -7 14 4 20 22 14 40 12 40 -4z"/>
<path d="M7710 1246 c0 -31 5 -56 10 -56 6 0 10 22 10 49 0 28 -4 53 -10 56
-6 4 -10 -15 -10 -49z"/>
<path d="M7766 1285 c-6 -18 -1 -19 24 -5 13 7 21 6 29 -4 9 -11 6 -15 -16
-21 -30 -7 -53 -23 -53 -36 0 -17 33 -40 49 -33 9 4 26 6 38 6 19 -2 21 2 16
41 -3 23 -10 48 -16 55 -13 17 -64 15 -71 -3z m59 -54 c3 -6 -3 -15 -14 -21
-21 -11 -37 2 -26 20 8 13 32 13 40 1z"/>
<path d="M6616 1274 c-22 -21 -20 -60 3 -83 21 -21 52 -19 72 5 13 16 1 18
-20 5 -18 -11 -55 5 -46 20 4 5 22 9 41 9 26 0 34 4 34 18 0 40 -54 57 -84 26z
m53 -8 c15 -18 -1 -30 -30 -21 -16 5 -18 10 -8 21 15 18 23 18 38 0z"/>
<path d="M6728 1265 c-8 -18 -9 -35 -2 -53 8 -22 15 -27 44 -27 26 0 36 5 38
18 3 16 1 17 -16 6 -21 -13 -52 -7 -52 11 0 5 18 10 40 10 22 0 40 5 40 11 0
51 -71 69 -92 24z m61 1 c15 -18 2 -27 -27 -19 -18 4 -20 8 -11 19 15 18 24
18 38 0z"/>
<path d="M6900 1242 c0 -47 6 -66 19 -58 9 6 0 106 -10 106 -5 0 -9 -22 -9
-48z"/>
<path d="M1760 1225 c0 -15 4 -24 10 -20 6 3 10 12 10 20 0 8 -4 17 -10 20 -6
4 -10 -5 -10 -20z"/>
<path d="M2055 1241 c-3 -5 -1 -12 5 -16 5 -3 10 1 10 9 0 18 -6 21 -15 7z"/>
<path d="M2270 1234 c0 -8 5 -12 10 -9 6 4 8 11 5 16 -9 14 -15 11 -15 -7z"/>
<path d="M955 1230 c-3 -5 -2 -10 4 -10 5 0 13 5 16 10 3 6 2 10 -4 10 -5 0
-13 -4 -16 -10z"/>
<path d="M7160 1195 c0 -8 5 -15 10 -15 6 0 10 7 10 15 0 8 -4 15 -10 15 -5 0
-10 -7 -10 -15z"/>
<path d="M7883 1190 c1 -20 8 -25 20 -14 7 8 -3 34 -13 34 -5 0 -8 -9 -7 -20z"/>
<path d="M8180 1200 c0 -5 5 -10 10 -10 6 0 10 5 10 10 0 6 -4 10 -10 10 -5 0
-10 -4 -10 -10z"/>
<path d="M8390 1200 c0 -5 7 -10 16 -10 8 0 12 5 9 10 -3 6 -10 10 -16 10 -5
0 -9 -4 -9 -10z"/>
<path d="M308 1114 c-2 -11 -2 -46 1 -78 6 -57 7 -59 36 -61 32 -2 65 11 77
29 14 20 9 93 -7 106 -8 7 -35 15 -59 17 -36 4 -44 2 -48 -13z m90 -16 c19
-19 14 -73 -7 -92 -33 -30 -56 -17 -59 33 -2 24 -1 50 2 57 7 17 48 18 64 2z"/>
<path d="M690 1120 c0 -5 5 -10 10 -10 6 0 10 5 10 10 0 6 -4 10 -10 10 -5 0
-10 -4 -10 -10z"/>
<path d="M810 1110 c0 -14 -7 -20 -23 -20 -29 0 -57 -29 -57 -58 0 -28 37 -65
57 -58 8 3 21 6 29 6 11 0 14 17 14 75 0 43 -4 75 -10 75 -5 0 -10 -9 -10 -20z
m-2 -68 c4 -26 -13 -52 -34 -52 -19 0 -29 47 -14 66 18 21 44 13 48 -14z"/>
<path d="M920 1055 c0 -74 16 -105 22 -42 3 29 6 32 36 33 48 1 52 14 4 14
-38 0 -42 2 -42 25 0 22 4 25 39 25 22 0 43 5 46 10 4 6 -15 10 -49 10 l-56 0
0 -75z"/>
<path d="M1182 1118 c-29 -29 -9 -61 46 -73 33 -7 41 -22 20 -43 -18 -18 -45
-14 -61 9 -9 11 -18 16 -21 11 -8 -13 17 -38 45 -47 26 -8 69 19 69 44 0 24
-17 37 -58 46 -23 5 -32 12 -30 23 4 20 46 28 61 13 18 -18 28 -12 17 9 -12
23 -68 28 -88 8z"/>
<path d="M1609 1118 c-7 -60 -5 -138 2 -138 5 0 9 34 9 75 0 41 -2 75 -5 75
-3 0 -6 -6 -6 -12z"/>
<path d="M2050 1055 c0 -88 18 -102 22 -17 l3 57 18 -58 c10 -33 23 -57 29
-55 6 2 17 22 25 43 22 63 33 65 33 7 0 -29 5 -52 10 -52 6 0 10 32 10 76 0
66 -2 75 -17 72 -11 -2 -25 -24 -37 -56 -18 -50 -36 -69 -36 -37 0 28 -32 95
-46 95 -11 0 -14 -18 -14 -75z"/>
<path d="M2290 1055 l0 -75 40 0 c53 0 80 27 80 78 0 50 -24 72 -78 72 l-42 0
0 -75z m84 49 c35 -35 12 -104 -34 -104 -30 0 -30 1 -30 53 0 30 3 57 7 60 11
12 41 7 57 -9z"/>
<path d="M2643 1073 c-12 -32 -25 -66 -29 -75 -10 -28 11 -21 24 7 18 38 69
28 85 -17 2 -7 7 -10 11 -6 11 10 -40 143 -55 146 -9 1 -22 -19 -36 -55z m47
-9 c0 -15 -6 -24 -15 -24 -16 0 -19 17 -9 44 9 22 24 10 24 -20z"/>
<path d="M2775 1116 c-12 -9 -16 -20 -12 -36 3 -13 2 -32 -4 -42 -16 -30 6
-58 46 -58 38 0 44 10 43 80 -1 67 -29 89 -73 56z m50 -26 c0 -8 -10 -16 -22
-18 -22 -3 -32 16 -16 32 12 11 38 2 38 -14z m3 -68 c4 -26 -22 -40 -43 -22
-11 9 -12 17 -4 32 13 25 43 19 47 -10z"/>
<path d="M2904 1122 c-34 -22 -43 -84 -18 -120 22 -32 72 -30 80 2 11 45 2 61
-39 66 -36 5 -37 6 -23 25 13 17 18 18 36 7 26 -16 38 -8 20 13 -13 16 -38 19
-56 7z m41 -96 c0 -35 -16 -43 -39 -21 -12 13 -14 21 -5 36 16 30 44 20 44
-15z"/>
<path d="M3005 1110 c-10 -11 -15 -23 -11 -28 4 -4 13 1 20 11 7 9 20 17 29
17 27 0 31 -22 8 -41 l-21 -18 20 -6 c15 -5 20 -14 18 -28 -4 -27 -30 -33 -52
-11 -20 20 -34 11 -16 -11 15 -19 64 -20 79 -1 12 15 4 103 -12 124 -14 18
-41 15 -62 -8z"/>
<path d="M3137 1117 c-22 -16 -32 -74 -18 -109 8 -22 17 -28 40 -28 36 0 51
23 51 78 0 25 -7 45 -18 55 -22 20 -33 21 -55 4z m47 -23 c9 -24 7 -77 -4 -94
-7 -12 -13 -12 -27 -4 -22 13 -30 79 -12 100 15 19 35 18 43 -2z"/>
<path d="M3263 1106 c-28 -13 -30 -26 -3 -26 17 0 20 -7 20 -50 0 -27 5 -50
10 -50 6 0 10 30 10 70 0 73 -1 74 -37 56z"/>
<path d="M470 1075 c-16 -19 -5 -34 12 -17 16 16 51 15 46 0 -3 -7 -18 -16
-35 -20 -17 -4 -34 -16 -37 -25 -9 -22 22 -46 49 -39 11 3 27 6 35 6 12 0 15
9 12 43 -2 23 -9 48 -14 55 -14 17 -53 15 -68 -3z m60 -53 c0 -12 -23 -32 -37
-32 -19 0 -16 28 5 33 28 8 32 7 32 -1z"/>
<path d="M573 1073 c24 -73 33 -93 44 -93 12 0 31 35 47 88 12 37 -12 25 -25
-13 -7 -19 -16 -35 -20 -35 -4 0 -13 16 -19 35 -6 19 -16 35 -22 35 -6 0 -8
-8 -5 -17z"/>
<path d="M697 1083 c-11 -10 -8 -103 3 -103 6 0 10 25 10 55 0 56 -1 60 -13
48z"/>
<path d="M1306 1057 c-3 -16 -6 -41 -6 -54 0 -33 25 -24 26 9 1 38 11 58 29
58 11 0 15 -11 15 -45 0 -25 5 -45 10 -45 6 0 10 13 10 29 0 42 10 61 31 61
16 0 19 -8 19 -45 0 -25 5 -45 10 -45 14 0 12 86 -2 98 -7 5 -41 9 -75 9 -60
0 -61 -1 -67 -30z"/>
<path d="M1496 1074 c-33 -33 -12 -94 32 -94 36 0 52 17 52 55 0 17 -5 36 -12
43 -17 17 -54 15 -72 -4z m62 -30 c4 -38 -20 -63 -43 -44 -18 15 -19 34 -4 61
15 30 43 20 47 -17z"/>
<path d="M1657 1083 c-11 -10 -8 -103 3 -103 6 0 10 25 10 55 0 56 -1 60 -13
48z"/>
<path d="M1704 1081 c-9 -9 -4 -101 6 -101 6 0 10 15 10 33 0 18 6 42 14 52
21 29 45 5 41 -40 -2 -19 0 -37 5 -40 15 -9 20 11 12 56 -7 43 -9 44 -45 44
-21 0 -40 -1 -43 -4z"/>
<path d="M1826 1075 c-10 -28 -7 -33 29 -45 38 -13 44 -24 19 -34 -10 -4 -25
1 -37 11 -19 17 -19 17 -16 -2 5 -26 60 -33 78 -11 19 23 7 42 -28 49 -17 4
-31 11 -31 17 0 18 29 23 47 9 14 -12 16 -12 11 1 -7 22 -64 25 -72 5z"/>
<path d="M7292 1073 l-33 -4 3 -72 c3 -73 20 -99 26 -39 2 23 8 32 22 32 33 0
50 -12 50 -35 0 -24 12 -39 23 -29 3 3 1 21 -4 40 -7 22 -6 40 0 52 20 37 -21
62 -87 55z m65 -38 c7 -21 -1 -27 -32 -27 -30 0 -50 15 -41 31 11 17 66 13 73
-4z"/>
<path d="M7640 1006 c0 -44 4 -76 10 -76 6 0 10 9 10 20 0 27 10 25 36 -7 30
-38 43 -21 15 18 -22 29 -22 31 -5 50 22 24 10 38 -14 16 -26 -24 -32 -21 -32
12 0 17 -4 33 -10 36 -6 4 -10 -22 -10 -69z"/>
<path d="M8056 1058 c-3 -13 -6 -47 -6 -75 0 -42 3 -53 16 -53 14 0 15 7 10
45 -4 25 -5 45 -1 45 3 0 15 -21 25 -46 22 -51 41 -54 51 -8 3 16 11 39 17 49
10 17 11 12 12 -32 0 -69 17 -68 25 1 13 101 -19 130 -49 46 -10 -27 -21 -50
-25 -50 -4 0 -17 23 -28 50 -23 54 -37 63 -47 28z"/>
<path d="M8290 1005 l0 -75 44 0 c36 0 48 5 65 26 47 60 14 124 -64 124 l-45
0 0 -75z m95 35 c12 -14 15 -27 10 -47 -8 -32 -21 -43 -52 -43 -21 0 -23 5
-23 55 0 51 2 55 23 55 13 0 32 -9 42 -20z"/>
<path d="M8587 1012 c-15 -38 -27 -72 -27 -76 0 -15 19 -4 25 14 5 15 15 20
40 20 24 0 34 -5 38 -20 5 -19 27 -29 27 -12 0 25 -49 137 -61 140 -10 2 -24
-20 -42 -66z m51 5 c2 -10 -3 -17 -12 -17 -10 0 -16 9 -16 21 0 24 23 21 28
-4z"/>
<path d="M8837 1073 c-3 -5 -7 -21 -8 -38 -4 -27 -1 -30 22 -27 30 3 54 -20
45 -43 -6 -17 -41 -20 -51 -5 -10 16 -27 11 -23 -6 2 -9 12 -20 23 -24 54 -20
99 46 55 82 -12 10 -31 18 -41 18 -32 0 -21 19 13 22 45 4 49 28 4 28 -19 0
-37 -3 -39 -7z"/>
<path d="M8957 1073 c-3 -5 -8 -23 -12 -42 -7 -32 -7 -33 22 -27 34 8 57 -11
47 -38 -7 -18 -49 -22 -59 -6 -3 6 -11 10 -16 10 -18 0 10 -37 32 -43 24 -6
69 31 69 57 0 18 -38 46 -62 46 -22 0 -24 19 -3 21 8 1 20 3 25 4 6 1 15 3 20
4 6 0 10 6 10 11 0 12 -67 14 -73 3z"/>
<path d="M9086 1029 c-39 -53 -38 -68 7 -69 10 0 20 -7 23 -15 4 -8 10 -15 15
-15 5 0 9 7 9 15 0 8 5 15 10 15 6 0 10 7 10 15 0 8 -4 15 -10 15 -5 0 -10 20
-10 45 0 25 -4 45 -8 45 -4 0 -25 -23 -46 -51z m34 -14 c0 -18 -5 -25 -20 -25
-23 0 -24 3 -8 30 17 27 28 25 28 -5z"/>
<path d="M9196 1064 c-9 -8 -16 -20 -16 -25 0 -15 17 -10 24 6 7 20 30 19 47
-1 12 -15 10 -19 -11 -33 -40 -26 -72 -60 -65 -71 8 -13 105 -13 105 0 0 6
-15 10 -33 10 -49 0 -51 9 -7 41 44 32 52 62 21 79 -27 14 -47 13 -65 -6z"/>
<path d="M9312 1068 c-13 -13 -16 -38 -6 -38 4 0 12 7 19 17 14 19 45 11 45
-12 0 -9 -9 -15 -22 -15 -22 0 -22 -1 6 -23 17 -14 26 -29 22 -35 -11 -17 -53
-15 -60 4 -3 8 -10 12 -16 9 -14 -9 5 -41 28 -47 43 -12 88 35 63 66 -5 6 -8
22 -4 34 10 42 -44 71 -75 40z"/>
<path d="M6293 1046 c-57 -49 -21 -158 47 -141 14 3 33 6 43 6 13 0 17 9 17
40 0 38 -1 39 -36 39 -21 0 -33 -4 -29 -10 3 -5 15 -10 26 -10 27 0 24 -28 -5
-41 -38 -18 -66 3 -66 49 0 62 32 84 74 51 13 -11 27 -15 30 -10 7 11 -40 51
-60 51 -7 0 -25 -11 -41 -24z"/>
<path d="M7090 1006 c0 -35 -4 -67 -9 -71 -6 -3 -19 5 -30 17 -21 22 -21 22
-21 1 0 -59 74 -50 85 10 9 46 2 100 -12 105 -10 3 -13 -14 -13 -62z"/>
<path d="M7530 1000 c0 -40 4 -70 10 -70 6 0 10 9 10 20 0 27 10 25 36 -7 30
-38 43 -21 15 18 -22 29 -22 31 -5 50 26 28 8 36 -21 9 l-25 -23 0 36 c0 20
-4 37 -10 37 -6 0 -10 -30 -10 -70z"/>
<path d="M8734 1057 c-20 -10 -20 -11 -2 -29 14 -14 18 -30 16 -55 -2 -22 2
-38 10 -40 9 -4 12 14 12 66 0 74 -1 75 -36 58z"/>
<path d="M7433 1033 c-7 -2 -13 -12 -13 -20 0 -13 3 -13 15 -3 16 13 45 7 45
-10 0 -5 -11 -10 -24 -10 -28 0 -49 -22 -44 -47 3 -14 13 -18 50 -18 l47 -1
-6 46 c-7 57 -31 79 -70 63z m45 -70 c-4 -23 -48 -31 -48 -9 0 13 14 21 43 25
5 0 7 -7 5 -16z"/>
<path d="M7763 1033 c-7 -2 -13 -12 -13 -21 0 -12 3 -13 12 -4 16 16 51 16 46
0 -3 -7 -15 -15 -28 -18 -61 -14 -46 -70 18 -66 42 4 42 4 42 50 0 51 -34 77
-77 59z m47 -68 c0 -21 -28 -31 -43 -16 -9 9 -8 14 3 21 22 14 40 12 40 -5z"/>
<path d="M7864 1031 c-9 -9 -3 -101 6 -101 6 0 10 16 10 35 0 24 6 39 20 47
11 7 20 16 20 19 0 7 -49 7 -56 0z"/>
<path d="M6572 1023 c-23 -9 -34 -54 -21 -85 21 -52 99 -25 99 34 0 36 -44 65
-78 51z m48 -33 c16 -30 3 -60 -25 -60 -16 0 -25 7 -29 26 -12 46 33 74 54 34z"/>
<path d="M6693 1022 c-21 -3 -23 -9 -23 -58 0 -30 5 -54 10 -54 6 0 10 18 10
39 0 23 7 46 16 56 19 19 17 22 -13 17z"/>
<path d="M6746 1011 c-34 -37 -5 -106 40 -95 27 7 32 -7 9 -26 -12 -10 -18
-10 -30 0 -9 7 -19 10 -23 6 -11 -12 27 -34 48 -29 33 9 41 29 38 94 -3 61 -3
62 -34 65 -21 2 -37 -3 -48 -15z m60 -26 c8 -31 -1 -55 -19 -55 -23 0 -40 28
-33 55 9 34 43 34 52 0z"/>
<path d="M6866 1008 c-9 -12 -16 -29 -16 -38 0 -25 29 -60 50 -60 20 0 55 29
46 38 -3 2 -12 -1 -21 -8 -18 -15 -45 -6 -45 15 0 11 10 15 35 15 27 0 35 4
35 18 0 44 -58 57 -84 20z m62 -15 c2 -8 -6 -13 -22 -13 -17 0 -26 5 -26 16 0
19 41 16 48 -3z"/>
<path d="M6442 1008 c-18 -18 -14 -73 7 -92 14 -13 24 -14 45 -7 14 6 26 18
26 27 0 16 -2 16 -20 -1 -16 -15 -22 -15 -35 -5 -24 20 -18 30 19 30 41 0 51
12 36 40 -12 23 -59 27 -78 8z m56 -16 c2 -7 -7 -12 -22 -12 -27 0 -35 15 -13
23 17 7 30 3 35 -11z"/>
<path d="M1050 990 c0 -5 5 -10 10 -10 6 0 10 5 10 10 0 6 -4 10 -10 10 -5 0
-10 -4 -10 -10z"/>
<path d="M1930 993 c0 -5 5 -15 10 -23 8 -12 10 -11 10 8 0 12 -4 22 -10 22
-5 0 -10 -3 -10 -7z"/>
<path d="M2230 990 c0 -5 5 -10 10 -10 6 0 10 5 10 10 0 6 -4 10 -10 10 -5 0
-10 -4 -10 -10z"/>
<path d="M2440 990 c0 -5 5 -10 10 -10 6 0 10 5 10 10 0 6 -4 10 -10 10 -5 0
-10 -4 -10 -10z"/>
<path d="M7940 924 c0 -14 4 -23 10 -19 6 3 10 15 10 26 0 10 -4 19 -10 19 -5
0 -10 -12 -10 -26z"/>
<path d="M8235 940 c3 -5 10 -10 16 -10 5 0 9 5 9 10 0 6 -7 10 -16 10 -8 0
-12 -4 -9 -10z"/>
<path d="M8450 940 c0 -5 5 -10 10 -10 6 0 10 5 10 10 0 6 -4 10 -10 10 -5 0
-10 -4 -10 -10z"/>
<path d="M7145 930 c3 -5 10 -10 16 -10 5 0 9 5 9 10 0 6 -7 10 -16 10 -8 0
-12 -4 -9 -10z"/>
<path d="M993 860 c-30 -12 -40 -50 -17 -67 10 -7 25 -13 34 -13 9 0 25 -7 36
-15 19 -15 19 -15 0 -30 -26 -20 -32 -19 -57 6 -23 23 -39 17 -23 -8 16 -26
64 -35 91 -17 42 27 25 67 -34 83 -41 11 -44 41 -4 41 17 0 31 -4 31 -10 0 -5
5 -10 10 -10 21 0 9 31 -16 40 -14 6 -26 10 -27 9 -1 0 -12 -4 -24 -9z"/>
<path d="M1807 863 c-11 -11 -8 -153 3 -153 6 0 10 23 10 52 0 58 10 55 30
-10 7 -23 18 -41 24 -39 5 2 17 24 25 49 23 67 33 71 30 11 -2 -29 1 -54 7
-55 10 -3 18 116 9 140 -9 23 -31 -3 -54 -64 -19 -47 -20 -48 -29 -24 -22 58
-41 100 -45 100 -2 0 -7 -3 -10 -7z"/>
<path d="M2047 864 c-4 -4 -7 -40 -7 -81 l0 -73 40 0 c53 0 80 27 80 78 0 25
-7 45 -18 55 -20 18 -84 32 -95 21z m84 -36 c14 -21 10 -65 -7 -82 -8 -9 -26
-16 -40 -16 -22 0 -24 4 -24 53 0 30 2 56 5 59 10 10 58 0 66 -14z"/>
<path d="M2390 845 c-30 -32 -32 -85 -5 -115 15 -17 29 -20 67 -18 l49 3 -3
40 c-3 35 -6 40 -30 43 -16 2 -28 -1 -28 -7 0 -6 9 -11 20 -11 21 0 24 -8 14
-34 -7 -19 -55 -21 -72 -4 -17 17 -15 74 4 92 20 21 43 20 66 -1 10 -9 21 -13
25 -9 11 11 -20 35 -52 42 -24 4 -35 0 -55 -21z"/>
<path d="M317 853 c-4 -3 -7 -37 -7 -75 l0 -68 61 0 c37 0 58 4 54 10 -3 6
-26 10 -51 10 -41 0 -45 2 -42 23 2 17 11 23 43 28 l40 5 -40 5 c-32 3 -40 8
-40 24 0 16 8 21 43 23 23 2 42 7 42 13 0 10 -93 13 -103 2z"/>
<path d="M450 785 c0 -43 4 -75 10 -75 6 0 10 32 10 75 0 43 -4 75 -10 75 -6
0 -10 -32 -10 -75z"/>
<path d="M620 850 c0 -5 5 -10 10 -10 6 0 10 5 10 10 0 6 -4 10 -10 10 -5 0
-10 -4 -10 -10z"/>
<path d="M1230 785 l0 -75 43 0 c55 0 77 22 77 77 0 51 -23 73 -78 73 l-42 0
0 -75z m94 39 c10 -26 7 -69 -6 -82 -7 -7 -25 -12 -40 -12 -27 0 -28 1 -28 55
l0 55 34 0 c22 0 36 -6 40 -16z"/>
<path d="M2546 848 c-3 -7 -7 -25 -10 -40 -6 -26 -5 -27 31 -25 32 2 38 -1 41
-20 5 -31 -31 -49 -53 -27 -20 20 -33 10 -15 -11 8 -10 25 -15 44 -13 42 4 59
47 31 78 -10 11 -27 19 -36 18 -10 -2 -18 0 -19 5 -1 24 3 27 30 27 17 0 30 5
30 10 0 15 -70 12 -74 -2z"/>
<path d="M2666 844 c-18 -18 -21 -85 -6 -115 16 -29 64 -25 78 6 35 77 -21
161 -72 109z m58 -20 c19 -50 -10 -118 -40 -93 -14 12 -19 65 -8 93 3 9 14 16
24 16 10 0 21 -7 24 -16z"/>
<path d="M2782 848 c-21 -21 -15 -68 11 -77 12 -5 28 -6 35 -4 16 7 16 -22 -1
-35 -10 -9 -19 -7 -35 4 -23 16 -30 6 -10 -14 17 -17 53 -15 68 3 21 26 18
104 -4 121 -24 17 -48 18 -64 2z m56 -35 c-3 -31 -34 -44 -44 -19 -9 24 3 46
26 46 17 0 21 -5 18 -27z"/>
<path d="M2902 848 c-6 -6 -12 -21 -11 -32 0 -20 1 -20 16 2 8 12 24 22 34 22
33 0 23 -42 -15 -67 -18 -12 -36 -31 -39 -42 -5 -19 -1 -21 49 -21 30 0 54 5
54 10 0 6 -16 10 -35 10 -19 0 -35 3 -35 7 0 4 16 22 36 40 34 31 36 34 22 55
-17 26 -57 35 -76 16z"/>
<path d="M3022 848 c-7 -7 -12 -19 -12 -27 0 -11 4 -11 20 4 19 17 50 15 50
-4 0 -6 -10 -16 -22 -22 l-22 -12 23 -8 c16 -6 21 -15 19 -31 -4 -30 -23 -33
-47 -9 -23 23 -40 9 -20 -15 8 -10 25 -14 48 -12 l36 3 1 58 c1 39 -3 63 -13
73 -18 17 -45 18 -61 2z"/>
<path d="M1498 833 c-3 -10 -2 -40 1 -68 4 -37 11 -51 24 -53 9 -2 17 1 17 7
0 6 -4 11 -10 11 -14 0 -12 64 2 78 9 9 9 12 0 12 -7 0 -12 7 -12 15 0 21 -17
19 -22 -2z"/>
<path d="M507 813 c-4 -3 -7 -12 -7 -20 0 -10 6 -10 26 3 18 12 28 14 36 6 8
-8 0 -16 -28 -29 -21 -10 -40 -26 -42 -35 -4 -23 29 -38 70 -32 34 6 34 6 28
48 -3 23 -10 47 -14 54 -8 13 -58 17 -69 5z m63 -63 c0 -11 -40 -34 -47 -26
-3 3 -3 12 0 21 7 16 47 21 47 5z"/>
<path d="M620 765 c0 -30 5 -55 10 -55 6 0 10 25 10 55 0 30 -4 55 -10 55 -5
0 -10 -25 -10 -55z"/>
<path d="M665 803 c-9 -25 -6 -93 5 -93 6 0 10 13 10 28 0 37 22 67 44 59 11
-4 16 -19 16 -47 0 -22 5 -40 10 -40 13 0 13 66 0 90 -12 23 -76 25 -85 3z"/>
<path d="M792 808 c-7 -7 -12 -28 -12 -48 0 -30 5 -39 26 -48 18 -9 31 -9 45
-2 24 13 26 35 2 25 -20 -7 -23 -8 -40 -6 -7 0 -13 8 -13 16 0 11 11 15 40 15
28 0 40 4 40 14 0 37 -61 61 -88 34z m55 -22 c-4 -13 -47 -21 -47 -9 0 5 5 14
11 20 14 14 41 5 36 -11z"/>
<path d="M1390 805 c-14 -17 0 -21 17 -4 12 12 43 6 43 -9 0 -5 -15 -13 -32
-18 -26 -8 -33 -15 -33 -34 0 -23 5 -25 47 -28 l46 -3 -5 43 c-2 24 -6 49 -9
56 -5 17 -59 15 -74 -3z m60 -54 c0 -5 -7 -14 -15 -21 -18 -15 -42 1 -31 19 8
13 46 15 46 2z"/>
<path d="M1566 798 c-9 -12 -16 -30 -16 -39 0 -39 80 -68 94 -33 9 24 7 29 -6
16 -17 -17 -58 -15 -58 3 0 10 11 15 35 15 27 0 35 4 35 18 0 44 -58 57 -84
20z m61 -4 c2 -6 -6 -14 -19 -17 -27 -7 -32 -3 -24 18 6 18 37 17 43 -1z"/>
<path d="M8057 814 c-11 -11 -8 -144 3 -144 6 0 10 21 10 46 0 53 11 51 30 -5
17 -53 34 -52 50 4 7 25 17 45 21 45 5 0 9 -20 9 -45 0 -25 5 -45 10 -45 6 0
10 32 10 75 0 90 -19 101 -46 28 -9 -27 -20 -52 -24 -56 -4 -4 -16 15 -26 44
-18 51 -33 67 -47 53z"/>
<path d="M8290 745 l0 -75 43 0 c50 0 73 19 83 69 10 47 -25 81 -83 81 l-43 0
0 -75z m97 29 c15 -24 15 -29 2 -53 -11 -19 -23 -26 -44 -26 -29 0 -30 2 -31
45 0 56 2 60 31 60 15 0 31 -10 42 -26z"/>
<path d="M8584 750 c-15 -39 -24 -73 -20 -77 4 -4 9 3 13 15 8 31 65 31 86 0
25 -38 28 -15 7 47 -20 58 -36 85 -50 85 -5 0 -21 -32 -36 -70z m56 -7 c0 -14
-26 -18 -34 -5 -3 5 -2 19 1 32 6 22 7 22 20 5 7 -11 13 -25 13 -32z"/>
<path d="M8836 804 c-16 -16 -21 -34 -10 -34 4 0 13 8 20 18 10 13 17 15 30 6
30 -18 27 -32 -15 -59 -26 -16 -41 -33 -41 -45 0 -17 7 -20 45 -20 25 0 45 5
45 10 0 6 -16 10 -35 10 -44 0 -44 9 1 38 44 29 51 47 29 72 -22 24 -48 26
-69 4z"/>
<path d="M8960 810 c-8 -5 -15 -24 -16 -42 -1 -18 -2 -37 -4 -43 -11 -43 22
-71 63 -56 29 11 44 46 28 65 -5 6 -7 23 -4 36 9 36 -33 62 -67 40z m48 -33
c2 -11 -3 -17 -17 -17 -23 0 -35 15 -26 31 10 15 39 6 43 -14z m2 -53 c11 -12
11 -18 -2 -30 -18 -18 -48 -8 -48 15 0 33 28 42 50 15z"/>
<path d="M9071 794 c-23 -29 -26 -50 -11 -88 14 -38 43 -50 70 -28 30 24 34
107 6 128 -28 20 -42 18 -65 -12z m60 -21 c20 -52 -13 -112 -42 -77 -13 16
-16 75 -4 93 12 20 35 11 46 -16z"/>
<path d="M9191 794 c-28 -35 -26 -77 3 -111 20 -23 28 -26 43 -17 60 36 49
154 -16 154 -5 0 -19 -12 -30 -26z m60 -15 c13 -26 4 -85 -16 -92 -7 -3 -19 1
-26 9 -13 16 -16 75 -4 93 10 18 33 13 46 -10z"/>
<path d="M9322 813 c-7 -3 -18 -17 -23 -30 -12 -32 12 -63 48 -63 26 0 30 -12
8 -30 -12 -10 -18 -10 -30 0 -9 7 -19 10 -23 6 -8 -8 25 -36 43 -36 21 0 47
38 52 78 4 32 1 43 -18 61 -23 21 -33 24 -57 14z m46 -30 c5 -10 7 -24 5 -30
-6 -18 -42 -16 -49 2 -15 38 26 63 44 28z"/>
<path d="M6977 803 c-6 -10 -57 -143 -57 -149 0 -14 19 0 28 21 8 17 20 25 37
25 17 0 29 -8 37 -25 11 -24 28 -34 28 -17 0 4 -9 36 -21 69 -20 61 -42 92
-52 76z m23 -70 c0 -7 -7 -13 -15 -13 -15 0 -21 31 -8 43 8 8 23 -12 23 -30z"/>
<path d="M7197 803 c-2 -5 -4 -36 -5 -70 -1 -72 7 -81 68 -75 52 5 52 22 0 22
-28 0 -43 5 -47 16 -7 20 13 34 50 34 15 0 27 5 27 11 0 6 -11 8 -27 5 -34 -7
-58 6 -50 28 4 11 19 16 47 16 22 0 40 5 40 10 0 11 -97 14 -103 3z"/>
<path d="M7450 734 c0 -55 3 -75 12 -72 7 3 12 18 13 34 0 23 5 30 23 32 30 5
52 -14 52 -44 0 -13 4 -24 10 -24 12 0 10 121 -3 138 -5 6 -31 12 -58 12 l-49
0 0 -76z m96 44 c12 -18 -21 -40 -49 -32 -28 6 -38 39 -15 46 18 6 57 -3 64
-14z"/>
<path d="M8732 795 c-19 -10 -20 -14 -8 -18 12 -5 16 -20 16 -57 0 -38 4 -50
15 -50 12 0 15 14 15 64 0 36 -3 67 -7 69 -5 2 -18 -2 -31 -8z"/>
<path d="M6638 778 c-2 -16 -10 -22 -31 -23 -32 -1 -47 -18 -47 -56 0 -44 21
-62 63 -54 l37 7 0 69 c0 64 -15 104 -22 57z m-3 -58 c10 -33 -4 -62 -28 -58
-22 3 -34 35 -23 64 8 21 44 17 51 -6z"/>
<path d="M5826 719 c-14 -38 -26 -74 -26 -80 0 -17 15 -9 25 14 6 13 21 23 37
25 22 3 30 -2 38 -22 8 -23 30 -37 30 -20 0 24 -55 154 -65 154 -7 0 -24 -32
-39 -71z m48 15 c10 -25 7 -34 -9 -34 -9 0 -15 9 -15 25 0 28 15 34 24 9z"/>
<path d="M5950 716 c0 -41 5 -78 10 -81 6 -4 10 23 10 74 0 47 -4 81 -10 81
-6 0 -10 -31 -10 -74z"/>
<path d="M7614 755 c-25 -26 -26 -52 -2 -82 26 -33 88 2 88 49 0 20 -34 58
-50 58 -6 0 -22 -11 -36 -25z m56 -10 c7 -9 10 -25 6 -41 -9 -33 -49 -31 -54
4 -7 48 21 69 48 37z"/>
<path d="M7730 765 c-16 -20 -6 -43 25 -55 14 -5 25 -14 25 -20 0 -14 -33 -13
-48 2 -17 17 -28 2 -12 -17 14 -17 43 -19 71 -5 29 16 23 39 -16 56 -19 8 -35
19 -35 24 0 14 34 12 48 -2 7 -7 12 -8 12 -2 0 31 -49 44 -70 19z"/>
<path d="M7836 764 c-24 -23 -20 -33 20 -50 27 -11 34 -18 26 -26 -8 -8 -18
-8 -37 0 -26 12 -33 4 -13 -16 27 -27 78 -7 78 29 0 11 -13 22 -35 29 -19 6
-35 16 -35 21 0 13 34 11 48 -3 6 -6 15 -8 19 -4 9 9 -24 36 -43 36 -7 0 -20
-7 -28 -16z"/>
<path d="M6776 758 c-9 -5 -16 -14 -16 -20 0 -7 5 -6 15 2 15 13 45 7 45 -8 0
-5 -14 -12 -30 -16 -17 -3 -33 -13 -37 -22 -9 -23 11 -50 33 -46 11 2 29 3 41
3 19 -1 21 3 16 42 -2 23 -6 47 -8 53 -5 16 -39 23 -59 12z m44 -68 c0 -15
-38 -32 -45 -20 -3 5 -3 15 0 20 8 13 45 13 45 0z"/>
<path d="M6236 747 c-25 -18 -17 -50 14 -57 14 -3 26 -14 28 -23 4 -19 -10
-22 -39 -7 -22 12 -26 -2 -5 -20 12 -9 21 -9 43 2 37 18 35 40 -4 58 -18 8
-33 21 -33 28 0 15 22 16 38 0 6 -6 15 -8 19 -4 5 4 -1 14 -11 22 -24 17 -28
17 -50 1z"/>
<path d="M6340 745 c-7 -9 -9 -19 -5 -23 4 -4 10 -1 12 6 7 17 43 15 43 -3 0
-8 -9 -15 -19 -15 -20 0 -51 -24 -51 -40 0 -20 32 -40 49 -30 10 5 27 7 38 4
19 -5 20 -2 13 40 -10 70 -49 99 -80 61z m50 -65 c0 -13 -7 -20 -19 -20 -41 0
-29 28 17 39 1 1 2 -8 2 -19z"/>
<path d="M6443 744 c-2 -7 -3 -31 -1 -55 3 -49 23 -52 23 -4 1 35 11 55 30 55
16 0 25 -22 25 -66 0 -19 5 -34 10 -34 13 0 13 76 0 101 -8 14 -20 18 -47 16
-19 -1 -37 -7 -40 -13z"/>
<path d="M6680 704 c0 -30 5 -54 10 -54 6 0 10 15 10 34 0 19 7 41 15 50 20
20 19 24 -10 24 -24 0 -25 -4 -25 -54z"/>
<path d="M6012 738 c-31 -40 -15 -108 26 -108 23 0 59 26 50 36 -4 4 -14 1
-23 -6 -18 -15 -45 -6 -45 15 0 11 11 15 40 15 44 0 47 5 24 38 -17 24 -56 29
-72 10z m56 -25 c2 -8 -6 -13 -22 -13 -17 0 -26 5 -26 16 0 19 41 16 48 -3z"/>
<path d="M6121 736 c-17 -20 -3 -44 30 -51 16 -4 29 -11 29 -16 0 -16 -29 -22
-45 -9 -22 18 -32 3 -12 -17 22 -23 71 -7 75 24 3 17 -5 26 -34 38 -29 12 -35
18 -26 27 9 9 15 9 24 0 17 -17 39 -15 32 3 -8 19 -58 20 -73 1z"/>
<path d="M2200 726 c0 -9 5 -16 10 -16 6 0 10 4 10 9 0 6 -4 13 -10 16 -5 3
-10 -1 -10 -9z"/>
<path d="M1110 720 c0 -5 5 -10 10 -10 6 0 10 5 10 10 0 6 -4 10 -10 10 -5 0
-10 -4 -10 -10z"/>
<path d="M1683 705 c0 -14 3 -25 8 -25 5 0 9 11 9 25 0 14 -4 25 -9 25 -5 0
-8 -11 -8 -25z"/>
<path d="M1980 720 c0 -5 5 -10 10 -10 6 0 10 5 10 10 0 6 -4 10 -10 10 -5 0
-10 -4 -10 -10z"/>
<path d="M7937 683 c-2 -4 -1 -17 3 -28 7 -19 8 -19 15 -2 8 18 -9 46 -18 30z"/>
<path d="M8230 680 c0 -5 5 -10 10 -10 6 0 10 5 10 10 0 6 -4 10 -10 10 -5 0
-10 -4 -10 -10z"/>
<path d="M8450 680 c0 -5 5 -10 10 -10 6 0 10 5 10 10 0 6 -4 10 -10 10 -5 0
-10 -4 -10 -10z"/>
<path d="M7080 664 c0 -8 5 -12 10 -9 6 4 8 11 5 16 -9 14 -15 11 -15 -7z"/>
<path d="M7330 670 c0 -5 7 -10 16 -10 8 0 12 5 9 10 -3 6 -10 10 -16 10 -5 0
-9 -4 -9 -10z"/>
<path d="M353 587 c-14 -17 -53 -117 -53 -133 0 -22 16 -16 28 11 9 18 19 25
41 25 22 0 30 -5 35 -25 4 -14 11 -25 16 -25 12 0 13 32 2 46 -5 5 -17 30 -26
56 -20 53 -29 64 -43 45z m27 -52 c0 -16 -6 -25 -15 -25 -16 0 -19 9 -9 34 9
25 24 19 24 -9z"/>
<path d="M525 580 c-3 -11 -15 -20 -26 -20 -25 0 -59 -35 -59 -60 0 -33 36
-62 72 -57 l31 3 1 73 c1 73 -7 99 -19 61z m-10 -80 c0 -39 -27 -54 -43 -23
-14 25 3 65 25 61 13 -2 18 -13 18 -38z"/>
<path d="M942 588 c-28 -28 -11 -58 43 -75 40 -13 42 -47 2 -51 -18 -2 -29 2
-33 12 -8 20 -24 21 -24 1 0 -30 73 -48 98 -23 16 16 15 53 0 65 -7 6 -26 15
-43 20 -16 5 -30 16 -30 24 0 18 42 24 61 8 19 -16 30 -4 14 16 -15 18 -71 20
-88 3z"/>
<path d="M1250 519 c0 -51 4 -78 10 -74 6 3 10 40 10 81 0 43 -4 74 -10 74 -6
0 -10 -34 -10 -81z"/>
<path d="M1299 580 c0 -14 -1 -50 -2 -80 -1 -30 3 -55 8 -55 14 0 18 136 5
149 -7 7 -10 3 -11 -14z"/>
<path d="M1660 548 c0 -29 -3 -63 -6 -75 -5 -17 -2 -23 9 -23 12 0 17 13 19
53 l3 52 19 -57 c22 -65 38 -64 56 3 14 52 32 50 28 -3 -2 -24 1 -43 7 -43 6
0 10 30 10 70 0 88 -20 95 -50 18 -11 -29 -22 -53 -25 -53 -3 0 -14 25 -25 55
-24 72 -45 73 -45 3z"/>
<path d="M1896 584 c-3 -9 -6 -42 -6 -75 l0 -59 49 0 c40 0 53 4 65 22 22 31
20 84 -4 108 -25 25 -95 28 -104 4z m92 -16 c31 -31 5 -98 -38 -98 -30 0 -30
1 -30 55 0 54 1 55 28 55 15 0 33 -5 40 -12z"/>
<path d="M2248 583 c-58 -67 -12 -150 76 -136 34 5 36 8 36 44 0 37 -2 39 -30
39 -16 0 -30 -4 -30 -10 0 -5 9 -10 21 -10 14 0 19 -5 17 -16 -5 -28 -33 -39
-62 -26 -22 10 -26 18 -26 51 0 30 6 44 22 55 29 21 33 20 57 -5 11 -12 21
-16 25 -11 11 17 -24 42 -58 42 -19 0 -40 -8 -48 -17z"/>
<path d="M2532 584 c-12 -8 -22 -22 -22 -30 0 -21 18 -17 25 6 8 24 40 27 49
4 4 -11 -7 -28 -34 -53 -54 -49 -52 -61 12 -61 52 0 62 12 12 14 -38 1 -39 18
-1 41 40 25 46 57 15 79 -28 20 -28 20 -56 0z"/>
<path d="M2770 580 c-26 -26 -28 -107 -2 -126 26 -20 50 -17 68 11 14 21 15
30 5 52 -10 21 -17 24 -42 21 -22 -4 -29 -1 -27 10 5 25 37 40 48 22 5 -8 13
-11 17 -6 8 7 -23 36 -39 36 -4 0 -17 -9 -28 -20z m53 -74 c8 -21 -17 -50 -37
-43 -16 6 -22 38 -9 50 11 12 41 7 46 -7z"/>
<path d="M1074 575 c-14 -27 -6 -111 12 -126 18 -15 32 -3 16 13 -16 16 -15
71 0 86 8 8 9 12 1 12 -6 0 -13 8 -15 18 -4 15 -5 15 -14 -3z"/>
<path d="M2425 574 c-14 -11 -16 -18 -7 -21 7 -3 12 -24 12 -54 0 -37 4 -49
15 -49 12 0 15 14 15 70 0 39 -3 70 -7 70 -5 0 -17 -8 -28 -16z"/>
<path d="M2635 554 c-8 -43 -3 -49 24 -32 17 11 23 10 37 -4 13 -12 14 -20 5
-37 -14 -25 -28 -27 -53 -4 -16 15 -18 15 -18 0 0 -17 29 -37 54 -37 27 0 48
43 37 74 -8 20 -17 26 -41 26 -31 0 -36 6 -21 29 5 8 16 11 29 7 11 -4 23 -2
27 4 4 6 -8 10 -33 10 -38 0 -40 -2 -47 -36z"/>
<path d="M2876 575 c-12 -32 -5 -40 13 -16 12 16 24 22 35 18 26 -10 19 -40
-19 -72 -51 -44 -49 -58 8 -61 26 -1 47 2 47 7 0 5 -13 9 -29 9 -44 0 -46 15
-5 39 30 18 35 25 32 54 -3 29 -6 32 -39 35 -26 2 -38 -1 -43 -13z"/>
<path d="M2988 564 c-16 -34 0 -58 41 -62 24 -3 31 -7 27 -19 -3 -8 -6 -17 -6
-19 0 -2 -9 -4 -20 -4 -11 0 -20 5 -20 10 0 6 -4 10 -10 10 -16 0 -11 -27 6
-34 48 -19 74 5 74 69 0 52 -15 75 -51 75 -22 0 -32 -6 -41 -26z m66 -7 c8
-13 6 -21 -7 -34 -16 -16 -18 -16 -33 -1 -13 13 -14 20 -4 37 13 24 28 24 44
-2z"/>
<path d="M585 544 c-9 -9 -13 -19 -10 -22 3 -3 11 0 17 6 16 16 51 15 46 0 -3
-7 -13 -15 -24 -17 -27 -5 -44 -21 -44 -42 0 -20 5 -22 61 -23 l36 -1 -5 50
c-3 28 -10 53 -16 57 -18 13 -44 9 -61 -8z m53 -66 c-5 -15 -48 -24 -48 -10 0
14 12 22 33 22 10 0 17 -5 15 -12z"/>
<path d="M694 551 c-9 -9 -4 -101 6 -101 6 0 10 15 10 33 0 41 13 62 34 54 12
-5 16 -20 16 -54 0 -56 17 -47 22 12 2 28 8 41 21 43 14 3 17 -4 17 -48 0 -32
4 -49 10 -45 14 9 12 92 -2 102 -13 8 -126 12 -134 4z"/>
<path d="M1134 535 c-21 -32 -11 -72 22 -87 32 -15 54 -3 67 36 20 61 -54 104
-89 51z m70 -11 c8 -20 -11 -64 -27 -64 -35 0 -47 42 -21 71 17 19 39 16 48
-7z"/>
<path d="M1356 538 c-22 -32 -20 -64 6 -82 30 -22 55 -20 68 4 12 23 8 25 -19
8 -15 -9 -23 -9 -35 1 -22 19 -10 31 30 31 27 0 34 4 34 20 0 20 -27 40 -54
40 -8 0 -22 -10 -30 -22z m61 -12 c-6 -17 -47 -20 -47 -3 0 9 6 17 13 20 18 6
38 -4 34 -17z"/>
<path d="M1465 542 c-8 -22 -6 -92 4 -92 5 0 11 18 15 40 3 23 13 43 21 46 24
9 17 22 -10 20 -14 0 -27 -7 -30 -14z"/>
<path d="M8170 485 c0 -43 4 -75 10 -75 6 0 10 19 11 43 l0 42 22 -45 c12 -24
26 -44 31 -43 6 1 17 26 27 55 l17 53 1 -52 c1 -41 5 -53 16 -53 13 0 15 13
13 73 -4 89 -22 96 -51 19 -21 -57 -26 -57 -47 -2 -32 84 -50 79 -50 -15z"/>
<path d="M8410 486 c0 -66 2 -75 20 -81 36 -11 87 13 99 47 16 45 14 56 -14
83 -18 18 -35 25 -65 25 l-40 0 0 -74z m84 38 c19 -18 21 -65 4 -82 -7 -7 -25
-12 -40 -12 -27 0 -28 2 -28 48 0 27 3 52 7 55 11 12 41 7 57 -9z"/>
<path d="M8720 538 c-5 -13 -18 -45 -30 -72 -11 -27 -18 -51 -16 -54 8 -7 26
9 26 24 0 24 55 17 73 -8 28 -43 29 -9 2 61 -28 75 -40 85 -55 49z m30 -55 c0
-7 -7 -13 -15 -13 -15 0 -21 31 -8 43 8 8 23 -12 23 -30z"/>
<path d="M7275 538 c-3 -8 -5 -44 -3 -79 l3 -64 33 -3 c50 -5 77 10 32 17 -35
6 -35 6 -41 69 -6 65 -14 85 -24 60z"/>
<path d="M7682 478 c3 -78 11 -87 63 -74 18 5 26 15 31 41 8 43 -8 65 -47 65
-22 0 -29 5 -29 20 0 11 -5 20 -10 20 -7 0 -10 -27 -8 -72z m74 -14 c8 -30 -6
-47 -32 -42 -35 6 -30 68 5 68 14 0 23 -9 27 -26z"/>
<path d="M8843 503 c-35 -50 -35 -63 3 -63 15 0 24 -6 24 -15 0 -8 7 -15 15
-15 8 0 15 6 15 14 0 8 6 17 13 19 9 4 9 8 0 14 -6 4 -13 26 -15 47 -2 22 -7
41 -13 43 -5 1 -24 -18 -42 -44z m30 -35 c-2 -5 -11 -8 -19 -8 -17 0 -18 22
-2 38 10 10 14 9 19 -5 4 -10 5 -21 2 -25z"/>
<path d="M8980 540 c0 -5 -7 -10 -15 -10 -8 0 -15 -4 -15 -9 0 -5 7 -11 15
-15 10 -4 15 -20 15 -51 0 -57 17 -59 21 -2 5 55 0 97 -12 97 -5 0 -9 -4 -9
-10z"/>
<path d="M9066 534 c-9 -8 -13 -20 -10 -26 5 -7 12 -5 20 6 14 20 45 18 52 -2
2 -8 -6 -16 -18 -19 l-23 -6 23 -17 c15 -11 21 -23 17 -34 -8 -21 -37 -20 -53
1 -17 24 -29 10 -14 -16 14 -28 61 -28 86 0 15 17 16 23 6 40 -7 11 -10 29 -7
40 14 42 -46 67 -79 33z"/>
<path d="M9203 502 c-18 -26 -33 -51 -33 -55 0 -4 13 -7 28 -7 20 0 32 -7 38
-21 10 -21 10 -21 28 6 12 18 14 30 8 34 -6 3 -12 24 -14 45 -2 22 -7 41 -13
43 -5 1 -25 -19 -42 -45z m32 -32 c-7 -11 -35 -14 -35 -4 0 3 5 15 11 26 10
19 12 20 21 5 5 -10 6 -22 3 -27z"/>
<path d="M9314 542 c-38 -26 -12 -99 32 -88 18 5 24 2 24 -9 0 -21 -29 -31
-51 -17 -11 7 -20 8 -24 2 -7 -11 27 -30 54 -30 23 0 51 45 51 82 0 50 -50 85
-86 60z m51 -42 c0 -38 -39 -35 -43 3 -3 25 0 28 20 25 17 -2 23 -9 23 -28z"/>
<path d="M7010 475 c0 -36 0 -68 -1 -72 0 -4 4 -9 10 -11 6 -2 11 9 11 26 0
18 6 32 16 36 24 9 54 -12 54 -39 0 -16 6 -25 16 -25 10 0 14 6 10 18 -15 49
-17 70 -7 76 11 7 3 37 -13 48 -6 4 -30 8 -53 8 l-43 0 0 -65z m85 20 c0 -15
-8 -21 -32 -23 -30 -3 -33 -1 -33 23 0 24 3 26 33 23 24 -2 32 -8 32 -23z"/>
<path d="M7990 525 c0 -10 -11 -15 -35 -15 l-35 0 0 -55 c0 -30 5 -55 10 -55
6 0 10 17 10 38 0 39 14 62 37 62 8 0 13 -13 13 -34 0 -44 9 -66 26 -66 16 0
19 16 4 25 -13 8 -13 62 0 70 6 4 5 13 -3 25 -14 24 -27 26 -27 5z"/>
<path d="M6362 453 l3 -78 48 0 c26 0 47 5 47 10 0 6 -17 10 -38 10 -31 0 -38
4 -40 23 -3 18 1 22 25 22 15 0 35 5 43 10 11 7 4 10 -27 10 -39 0 -43 2 -43
25 0 23 4 25 40 25 22 0 40 5 40 10 0 6 -23 10 -50 10 l-51 0 3 -77z"/>
<path d="M6490 455 c0 -43 4 -75 10 -75 6 0 10 32 10 75 0 43 -4 75 -10 75 -6
0 -10 -32 -10 -75z"/>
<path d="M6660 519 c0 -5 5 -7 10 -4 6 3 10 8 10 11 0 2 -4 4 -10 4 -5 0 -10
-5 -10 -11z"/>
<path d="M7402 498 c-7 -7 -12 -16 -12 -22 0 -6 5 -5 12 2 17 17 48 15 48 -3
0 -9 -9 -15 -24 -15 -33 0 -50 -23 -37 -49 9 -15 19 -19 53 -16 l43 3 -4 38
c-1 22 -7 47 -12 56 -11 21 -49 24 -67 6z m46 -65 c-4 -20 -39 -25 -45 -6 -4
10 11 18 40 22 5 0 7 -7 5 -16z"/>
<path d="M7506 470 c-9 -55 -7 -70 9 -70 11 0 15 12 15 46 0 38 3 45 18 42 12
-2 18 -15 20 -46 4 -54 22 -55 22 -2 0 27 5 43 15 47 21 8 26 1 32 -46 7 -51
23 -54 23 -3 0 59 -11 67 -84 67 l-64 0 -6 -35z"/>
<path d="M7813 498 c-28 -37 -22 -77 16 -98 15 -7 25 -5 43 9 12 11 20 23 16
27 -4 4 -14 1 -23 -6 -16 -13 -45 -7 -45 10 0 5 15 10 34 10 41 0 51 12 36 40
-12 23 -62 28 -77 8z m55 -15 c2 -8 -6 -13 -22 -13 -25 0 -33 10 -19 24 10 10
36 3 41 -11z"/>
<path d="M6727 493 c-27 -4 -28 -7 -25 -54 4 -61 22 -69 26 -11 6 76 52 67 52
-11 0 -23 4 -36 10 -32 16 10 12 82 -6 99 -8 9 -18 15 -22 15 -4 -1 -20 -4
-35 -6z"/>
<path d="M6836 484 c-19 -18 -21 -75 -4 -92 16 -16 40 -15 64 2 25 19 12 31
-15 14 -17 -10 -23 -10 -33 0 -16 16 5 32 45 32 31 0 33 7 11 38 -18 26 -46
28 -68 6z m52 -21 c2 -8 -6 -13 -22 -13 -25 0 -33 10 -19 24 10 10 36 3 41
-11z"/>
<path d="M6549 473 c-12 -15 -12 -16 6 -9 31 12 37 12 42 0 2 -7 -10 -17 -27
-22 -22 -8 -30 -17 -30 -35 0 -27 26 -43 44 -28 7 6 22 8 33 5 20 -6 21 -3 16
38 -3 23 -10 49 -16 56 -14 17 -52 15 -68 -5z m61 -52 c0 -5 -7 -14 -15 -21
-18 -15 -42 1 -31 19 8 13 46 15 46 2z"/>
<path d="M6660 435 c0 -30 5 -55 10 -55 6 0 10 25 10 55 0 30 -4 55 -10 55 -5
0 -10 -25 -10 -55z"/>
<path d="M1549 468 c-5 -17 -4 -48 3 -48 4 0 8 11 8 25 0 20 -7 34 -11 23z"/>
<path d="M1840 460 c0 -5 5 -10 10 -10 6 0 10 5 10 10 0 6 -4 10 -10 10 -5 0
-10 -4 -10 -10z"/>
<path d="M2055 460 c-3 -5 -1 -10 4 -10 6 0 11 5 11 10 0 6 -2 10 -4 10 -3 0
-8 -4 -11 -10z"/>
<path d="M8060 430 c-1 -3 -4 -15 -5 -28 -1 -15 1 -20 7 -14 6 6 8 18 5 28 -3
11 -6 17 -7 14z"/>
<path d="M8350 420 c0 -5 5 -10 11 -10 5 0 7 5 4 10 -3 6 -8 10 -11 10 -2 0
-4 -4 -4 -10z"/>
<path d="M8565 420 c-3 -5 1 -10 10 -10 9 0 13 5 10 10 -3 6 -8 10 -10 10 -2
0 -7 -4 -10 -10z"/>
<path d="M7160 400 c0 -5 5 -10 10 -10 6 0 10 5 10 10 0 6 -4 10 -10 10 -5 0
-10 -4 -10 -10z"/>
<path d="M8330 225 c0 -43 4 -75 10 -75 6 0 10 23 10 51 0 45 2 50 15 39 8 -7
25 -30 37 -51 19 -35 47 -59 48 -41 1 4 3 31 5 60 5 61 -8 110 -20 79 -4 -10
-5 -33 -2 -52 7 -42 -6 -45 -30 -7 -22 36 -55 72 -65 72 -4 0 -8 -34 -8 -75z"/>
<path d="M8490 225 c0 -43 4 -75 10 -75 6 0 10 14 10 30 0 27 3 30 33 30 39 0
57 15 57 47 0 27 -27 43 -74 43 l-36 0 0 -75z m79 46 c23 -15 5 -41 -29 -41
-25 0 -30 4 -30 25 0 19 5 25 23 25 12 0 28 -4 36 -9z"/>
<path d="M8635 257 c-9 -57 -3 -99 13 -105 10 -3 13 4 10 24 -3 27 0 29 35 32
43 4 51 22 10 22 -38 0 -57 14 -49 35 4 12 16 16 41 14 19 -2 36 1 37 6 2 6
-18 11 -44 13 l-47 3 -6 -44z"/>
<path d="M7223 282 l-33 -3 0 -69 c0 -38 5 -72 10 -75 6 -4 10 6 10 24 0 26 4
30 39 36 51 8 68 27 53 59 -11 26 -31 33 -79 28z m45 -24 c23 -23 13 -38 -23
-38 -28 0 -35 4 -35 19 0 29 37 40 58 19z"/>
<path d="M7520 270 c-28 -28 -28 -100 0 -125 20 -18 21 -18 48 2 48 36 37 83
-19 83 -32 0 -37 11 -14 30 13 10 19 10 33 -4 24 -21 37 -8 15 16 -21 23 -38
23 -63 -2z m54 -77 c4 -9 0 -23 -9 -32 -13 -14 -17 -14 -31 1 -9 9 -14 24 -11
32 8 21 43 20 51 -1z"/>
<path d="M7638 279 c-10 -5 -18 -17 -18 -24 0 -20 16 -19 24 0 7 20 32 19 40
-1 9 -23 8 -24 -14 -24 -11 0 -20 -4 -20 -9 0 -5 9 -13 20 -16 23 -7 27 -40 6
-48 -7 -3 -24 1 -35 10 -30 21 -42 6 -14 -17 26 -20 54 -17 78 10 13 14 14 23
6 38 -5 10 -7 29 -4 42 4 16 0 27 -12 36 -22 16 -34 17 -57 3z"/>
<path d="M7735 280 c-4 -6 8 -10 29 -10 20 0 36 -2 36 -4 0 -2 -11 -28 -24
-57 -14 -29 -23 -56 -20 -61 9 -14 22 1 29 31 3 16 17 43 30 61 13 18 22 37
19 41 -7 12 -91 11 -99 -1z"/>
<path d="M7900 282 c0 -5 -10 -14 -22 -20 -17 -8 -18 -11 -7 -11 18 -1 29 -29
29 -78 0 -18 5 -33 10 -33 6 0 10 30 10 69 0 39 -4 73 -10 76 -5 3 -10 2 -10
-3z"/>
<path d="M7982 278 c-7 -7 -12 -24 -12 -40 0 -30 28 -52 54 -42 11 4 16 1 16
-10 0 -22 -27 -31 -45 -16 -21 18 -32 3 -13 -17 37 -37 88 7 88 76 0 48 -57
80 -88 49z m58 -24 c11 -12 11 -18 -2 -30 -18 -18 -48 -8 -48 15 0 33 28 42
50 15z"/>
<path d="M8102 278 c-12 -12 -17 -38 -6 -38 3 0 14 10 23 21 16 20 18 21 35 4
17 -17 15 -20 -31 -63 -47 -44 -48 -44 -24 -53 27 -11 94 -1 85 12 -3 5 -22 9
-42 9 -38 0 -36 11 9 34 33 16 46 42 33 64 -13 21 -64 28 -82 10z"/>
<path d="M8860 280 c0 -5 -7 -10 -15 -10 -8 0 -15 -3 -15 -6 0 -3 7 -12 15
-20 8 -9 15 -33 15 -55 0 -21 5 -39 10 -39 6 0 10 30 10 70 0 40 -4 70 -10 70
-5 0 -10 -4 -10 -10z"/>
<path d="M8951 281 c-9 -6 -12 -19 -8 -40 4 -16 2 -33 -3 -36 -28 -17 6 -65
45 -65 32 0 58 36 44 62 -6 10 -7 28 -4 39 12 38 -36 64 -74 40z m54 -31 c0
-22 -39 -19 -43 3 -3 15 1 18 20 15 12 -2 23 -10 23 -18z m3 -63 c2 -9 -4 -20
-13 -23 -20 -8 -50 19 -40 36 10 17 49 8 53 -13z"/>
<path d="M9071 281 c-9 -6 -12 -19 -8 -40 4 -16 2 -33 -3 -36 -28 -17 6 -65
45 -65 32 0 58 36 44 62 -6 10 -7 28 -4 39 12 38 -36 64 -74 40z m52 -26 c4
-8 2 -17 -4 -21 -15 -9 -39 3 -39 21 0 19 36 20 43 0z m2 -70 c0 -22 -22 -30
-44 -16 -21 14 -5 43 21 39 15 -2 23 -10 23 -23z"/>
<path d="M9190 275 c-7 -8 -10 -24 -7 -36 3 -12 0 -30 -6 -40 -29 -46 50 -81
88 -39 15 17 17 25 8 39 -7 10 -9 28 -6 40 11 42 -48 70 -77 36z m55 -25 c0
-22 -39 -19 -43 3 -3 15 1 18 20 15 12 -2 23 -10 23 -18z m0 -65 c0 -25 -40
-33 -49 -10 -9 24 2 37 27 33 14 -2 22 -10 22 -23z"/>
<path d="M9333 270 c-18 -14 -20 -19 -8 -24 11 -4 15 -21 15 -57 0 -74 24 -60
27 16 3 75 -5 89 -34 65z"/>
<path d="M6979 220 c-1 -33 -2 -65 -3 -72 -1 -6 4 -13 11 -15 8 -3 13 13 15
49 l3 53 32 -52 c47 -77 63 -71 63 22 0 88 -18 102 -22 18 l-3 -58 -38 58
c-21 31 -42 57 -47 57 -6 0 -11 -27 -11 -60z"/>
<path d="M6470 196 c0 -44 4 -76 10 -76 6 0 10 9 10 20 0 27 10 25 37 -7 26
-33 32 -11 7 25 -15 21 -15 25 2 43 26 28 8 36 -21 9 l-25 -23 0 36 c0 20 -4
39 -10 42 -6 4 -10 -22 -10 -69z"/>
<path d="M6575 260 c-3 -5 -1 -10 4 -10 6 0 11 5 11 10 0 6 -2 10 -4 10 -3 0
-8 -4 -11 -10z"/>
<path d="M6125 250 c-4 -6 10 -10 34 -10 23 0 41 -3 41 -6 0 -3 -18 -29 -40
-57 -41 -51 -46 -73 -17 -71 10 0 33 1 52 2 48 3 44 20 -5 24 l-39 3 44 53
c25 30 42 58 39 63 -7 12 -101 11 -109 -1z"/>
<path d="M5412 173 c2 -48 7 -76 13 -73 6 3 9 25 7 50 -4 53 10 46 31 -15 8
-21 18 -40 24 -42 6 -2 19 20 29 49 l19 53 5 -48 c6 -56 24 -67 28 -17 5 52
-7 120 -22 120 -7 0 -21 -25 -31 -55 -11 -30 -22 -55 -26 -55 -4 0 -12 15 -19
33 -26 70 -30 77 -45 77 -13 0 -15 -13 -13 -77z"/>
<path d="M5780 240 c0 -5 5 -10 10 -10 6 0 10 5 10 10 0 6 -4 10 -10 10 -5 0
-10 -4 -10 -10z"/>
<path d="M6383 219 c-34 -12 -29 -45 7 -58 17 -5 30 -15 30 -20 0 -15 -33 -14
-49 2 -10 10 -12 8 -9 -8 4 -23 38 -31 67 -16 27 15 16 47 -20 60 -16 5 -29
15 -29 20 0 14 27 14 35 1 8 -13 25 -13 25 0 0 17 -34 28 -57 19z"/>
<path d="M6577 223 c-11 -10 -8 -103 3 -103 6 0 10 25 10 55 0 56 -1 60 -13
48z"/>
<path d="M6625 222 c-9 -10 -5 -102 5 -102 6 0 10 17 10 39 0 39 20 68 40 56
5 -3 10 -24 10 -45 0 -21 4 -41 9 -44 11 -7 19 42 11 74 -5 21 -12 25 -43 26
-20 1 -39 -1 -42 -4z"/>
<path d="M6745 219 c-4 -6 -4 -13 0 -17 4 -4 10 -1 12 6 7 17 43 15 43 -3 0
-8 -8 -15 -18 -15 -11 0 -27 -9 -37 -20 -25 -28 -7 -45 49 -46 l44 -1 -5 41
c-3 22 -10 47 -16 54 -12 15 -63 16 -72 1z m58 -64 c-6 -17 -39 -20 -48 -5 -6
10 35 31 47 24 4 -3 5 -11 1 -19z"/>
<path d="M5976 208 c-9 -5 -16 -14 -16 -20 0 -7 5 -6 15 2 16 13 45 7 45 -10
0 -5 -11 -10 -24 -10 -28 0 -49 -22 -44 -47 3 -14 13 -18 50 -18 l48 -1 -6 41
c-3 22 -7 45 -9 51 -5 16 -39 23 -59 12z m41 -73 c-7 -17 -47 -21 -47 -5 0 11
41 31 49 24 2 -2 1 -10 -2 -19z"/>
<path d="M6250 213 c0 -5 8 -30 17 -56 14 -40 15 -51 5 -68 -12 -18 -11 -20 4
-17 16 3 61 99 63 136 2 28 -19 9 -25 -23 -8 -43 -25 -41 -38 3 -8 28 -26 45
-26 25z"/>
<path d="M5607 204 c-4 -4 -7 -14 -7 -23 0 -12 3 -12 12 -3 16 16 51 16 46 0
-3 -7 -15 -15 -28 -18 -28 -7 -45 -31 -37 -53 5 -12 17 -15 54 -12 26 2 49 4
49 4 1 1 -3 25 -10 54 -10 48 -14 52 -42 55 -16 2 -33 0 -37 -4z m53 -69 c0
-21 -28 -31 -43 -16 -9 9 -8 14 3 21 22 14 40 12 40 -5z"/>
<path d="M5712 154 c2 -30 7 -53 13 -52 6 2 9 10 8 18 -5 31 9 70 24 70 25 0
6 13 -22 16 -25 3 -26 1 -23 -52z"/>
<path d="M5787 204 c-12 -21 -5 -104 9 -104 9 0 14 11 13 33 -1 44 -13 84 -22
71z"/>
<path d="M5830 153 c0 -39 4 -53 14 -53 9 0 12 7 9 20 -9 32 5 70 26 70 19 0
31 -25 31 -67 0 -13 5 -23 10 -23 13 0 13 66 0 90 -8 14 -20 19 -50 17 l-40
-1 0 -53z"/>
<path d="M7330 150 c0 -5 5 -10 11 -10 5 0 7 5 4 10 -3 6 -8 10 -11 10 -2 0
-4 -4 -4 -10z"/>
<path d="M6860 138 c0 -7 5 -20 10 -28 8 -12 10 -9 10 13 0 15 -4 27 -10 27
-5 0 -10 -6 -10 -12z"/>
<path d="M7130 140 c0 -5 5 -10 10 -10 6 0 10 5 10 10 0 6 -4 10 -10 10 -5 0
-10 -4 -10 -10z"/>
</g>
</svg>
